<svg width="676" height="686" viewBox="0 0 676 686" fill="none" xmlns="http://www.w3.org/2000/svg">
<g opacity="0.15">
<path opacity="0.15" d="M27.1744 605.302L130.767 663.27C135.284 665.919 143.385 665.607 148.681 662.491L183.108 641.922C188.405 638.805 189.028 634.13 184.355 631.481L81.2294 572.267C76.7118 569.618 68.6114 569.93 63.3149 573.046L28.4206 594.706C23.1242 597.978 22.5011 602.653 27.1744 605.302Z" fill="#BDCEFA"/>
<path opacity="0.15" d="M70.1685 554.658L173.761 612.626C178.279 615.275 186.379 614.964 191.675 611.847L226.102 591.278C231.399 588.161 232.022 583.486 227.349 580.837L124.224 521.623C119.706 518.974 111.605 519.286 106.309 522.402L71.4147 544.062C66.274 547.334 65.6509 552.009 70.1685 554.658Z" fill="#BDCEFA"/>
<path opacity="0.15" d="M45.3997 468.953L357.891 643.324C371.755 651.271 396.057 650.336 412.102 641.143L594.207 535.959C610.252 526.765 611.965 512.585 598.101 504.638L285.61 330.267C271.746 322.32 247.444 323.255 231.399 332.449L49.2941 437.632C33.4047 446.982 31.5353 461.006 45.3997 468.953Z" fill="#BDCEFA"/>
</g>
<path d="M648.261 234.745C649.974 234.745 652 233.343 652 231.005V152.936C652 151.689 651.221 150.443 650.13 149.819L556.196 95.5915C555.573 95.2799 554.95 95.124 554.326 95.124C552.613 95.124 550.588 96.5265 550.588 98.8639V176.933C550.588 178.18 551.367 179.427 552.457 180.05L646.391 234.278C647.015 234.589 647.638 234.745 648.261 234.745Z" fill="url(#paint0_linear_906_16379)"/>
<path d="M578.161 348.187C581.899 348.187 586.105 345.227 586.105 340.24V173.193C586.105 170.388 584.548 167.739 582.211 166.337L381.257 50.4013C380.011 49.6222 378.765 49.3105 377.363 49.3105C373.624 49.3105 369.418 52.2713 369.418 57.2577V224.46C369.418 227.265 370.976 229.914 373.312 231.317L574.266 347.096C575.513 347.876 576.759 348.187 578.161 348.187Z" fill="url(#paint1_linear_906_16379)"/>
<path d="M419.89 124.887C421.448 124.887 423.161 123.64 423.161 121.614V52.4269C423.161 51.3361 422.538 50.2453 421.603 49.622L338.418 1.47139C337.95 1.15974 337.327 1.00391 336.86 1.00391C335.302 1.00391 333.589 2.25052 333.589 4.27628V73.4636C333.589 74.5544 334.212 75.6452 335.146 76.2685L418.332 124.263C418.799 124.731 419.422 124.887 419.89 124.887Z" fill="url(#paint2_linear_906_16379)"/>
<path d="M613.99 400.077C615.548 400.077 617.261 398.83 617.261 396.805V327.617C617.261 326.526 616.638 325.436 615.703 324.812L532.518 276.818C532.051 276.506 531.427 276.35 530.96 276.35C529.402 276.35 527.689 277.597 527.689 279.622V348.81C527.689 349.901 528.312 350.991 529.247 351.615L612.432 399.609C612.899 399.921 613.523 400.077 613.99 400.077Z" fill="url(#paint3_linear_906_16379)"/>
<path d="M384.342 141.048C382.213 137.509 382.16 133.632 384.224 132.389C386.288 131.147 389.687 133.009 391.817 136.548C393.946 140.087 394 143.964 391.936 145.207C389.872 146.449 386.472 144.587 384.342 141.048Z" fill="#BDCEFA"/>
<path d="M364.121 124.887C364.121 128.159 366.458 132.366 369.418 133.925C372.378 135.639 374.714 134.236 374.714 130.964C374.714 127.691 372.378 123.484 369.418 121.926C366.458 120.212 364.121 121.614 364.121 124.887Z" fill="#BDCEFA"/>
<path d="M345.272 114.135C345.272 117.407 347.609 121.614 350.568 123.173C353.528 124.731 355.865 123.484 355.865 120.212C355.865 116.94 353.528 112.732 350.568 111.174C347.764 109.46 345.272 110.707 345.272 114.135Z" fill="#BDCEFA"/>
<path d="M491.08 129.562L468.025 135.95C467.246 136.106 466.156 135.483 465.532 134.548L442.477 101.668L491.08 129.562Z" fill="#BDCEFA"/>
<path d="M474.724 136.417L490.769 162.908C491.081 162.596 491.237 162.129 491.237 161.506V131.898L474.724 136.417Z" fill="#BDCEFA"/>
<path d="M460.237 129.406L444.036 137.509C444.503 137.977 444.97 138.444 445.593 138.756L487.654 163.065C488.121 163.377 488.588 163.532 489.056 163.532L473.01 136.886L466.624 138.6L460.237 129.406Z" fill="#BDCEFA"/>
<path d="M442.322 103.694V133.302C442.322 133.925 442.478 134.548 442.789 135.171L458.679 127.068L442.322 103.694Z" fill="#BDCEFA"/>
<path d="M281.091 143.586C281.247 143.586 281.402 143.43 281.402 143.274V28.7412L437.336 118.965C437.492 119.121 437.804 118.965 437.804 118.809C437.959 118.654 437.804 118.342 437.648 118.342L280.623 27.4946V143.43C280.623 143.43 280.779 143.586 281.091 143.586Z" fill="#BDCEFA"/>
<path d="M270.655 144.054C271.123 144.054 271.435 143.743 271.435 143.275V143.119C271.435 142.651 271.123 142.339 270.655 142.339C270.188 142.339 269.876 142.651 269.876 143.119C269.876 143.743 270.188 144.054 270.655 144.054Z" fill="#BDCEFA"/>
<path d="M270.656 138.132C271.123 138.132 271.435 137.821 271.435 137.353V137.197C271.435 136.73 271.123 136.418 270.656 136.418C270.188 136.418 269.877 136.73 269.877 137.197C269.877 137.665 270.188 138.132 270.656 138.132ZM270.656 132.055C271.123 132.055 271.435 131.743 271.435 131.276V131.12C271.435 130.652 271.123 130.341 270.656 130.341C270.188 130.341 269.877 130.652 269.877 131.12C269.877 131.587 270.188 132.055 270.656 132.055ZM270.656 125.978C271.123 125.978 271.435 125.666 271.435 125.199C271.435 124.731 271.123 124.419 270.656 124.419C270.188 124.419 269.877 124.731 269.877 125.199C269.877 125.51 270.188 125.978 270.656 125.978ZM270.656 119.9C271.123 119.9 271.435 119.589 271.435 119.121V118.965C271.435 118.498 271.123 118.186 270.656 118.186C270.188 118.186 269.877 118.498 269.877 118.965C269.877 119.589 270.188 119.9 270.656 119.9ZM270.656 113.979C271.123 113.979 271.435 113.667 271.435 113.2V113.044C271.435 112.577 271.123 112.265 270.656 112.265C270.188 112.265 269.877 112.577 269.877 113.044C269.877 113.511 270.188 113.979 270.656 113.979ZM270.656 107.902C271.123 107.902 271.435 107.59 271.435 107.123V106.967C271.435 106.499 271.123 106.188 270.656 106.188C270.188 106.188 269.877 106.499 269.877 106.967C269.877 107.434 270.188 107.902 270.656 107.902ZM270.656 101.824C271.123 101.824 271.435 101.513 271.435 101.045V100.889C271.435 100.422 271.123 100.11 270.656 100.11C270.188 100.11 269.877 100.422 269.877 100.889C269.877 101.357 270.188 101.824 270.656 101.824Z" fill="#BDCEFA"/>
<path d="M270.655 95.9035C270.967 95.9035 271.123 95.7476 271.278 95.5917C271.278 95.5917 271.278 95.5917 271.278 95.4358C271.434 95.124 271.434 94.6563 270.967 94.3445C270.655 94.1886 270.343 94.1886 270.187 94.3445C269.876 94.5004 269.72 94.6563 269.72 94.9681C269.876 95.4358 270.187 95.9035 270.655 95.9035Z" fill="#BDCEFA"/>
<path d="M493.573 220.253C493.884 220.253 494.04 220.097 494.196 219.785C494.352 219.474 494.196 219.006 493.884 218.694H493.728C493.417 218.539 492.949 218.694 492.638 219.006C492.482 219.318 492.638 219.785 492.949 220.097H493.105C493.261 220.253 493.417 220.253 493.573 220.253ZM487.965 217.136C488.276 217.136 488.432 216.98 488.588 216.669C488.743 216.357 488.588 215.89 488.276 215.578H488.12C487.809 215.422 487.341 215.578 487.03 215.89C486.874 216.201 487.03 216.669 487.341 216.98H487.497C487.653 217.136 487.809 217.136 487.965 217.136ZM482.357 214.02C482.668 214.02 482.824 213.864 482.98 213.552C483.135 213.241 482.98 212.773 482.668 212.461C482.357 212.306 481.733 212.306 481.578 212.773C481.422 213.085 481.422 213.552 481.733 213.864H481.889C482.045 214.02 482.201 214.02 482.357 214.02ZM476.749 210.903C477.06 210.903 477.216 210.747 477.372 210.436C477.527 210.124 477.372 209.656 477.06 209.345H476.904C476.593 209.189 476.125 209.345 475.814 209.656C475.658 209.968 475.814 210.436 476.125 210.747H476.281C476.593 210.903 476.593 210.903 476.749 210.903ZM471.141 207.787C471.452 207.787 471.608 207.631 471.764 207.319C471.919 207.007 471.764 206.54 471.452 206.228H471.296C470.985 206.072 470.517 206.228 470.206 206.54C470.05 206.852 470.206 207.319 470.517 207.631H470.673C470.985 207.787 471.141 207.787 471.141 207.787ZM465.688 204.67C466 204.67 466.156 204.514 466.311 204.203C466.467 203.891 466.311 203.423 466 203.112C465.688 202.956 465.065 202.956 464.909 203.423C464.754 203.735 464.754 204.203 465.065 204.514H465.221C465.377 204.67 465.533 204.67 465.688 204.67ZM460.08 201.553C460.392 201.553 460.548 201.398 460.703 201.086C460.859 200.774 460.703 200.307 460.392 199.995C460.08 199.839 459.457 199.839 459.301 200.307C459.146 200.618 459.146 201.086 459.457 201.398H459.613C459.769 201.553 459.925 201.553 460.08 201.553ZM454.472 198.437C454.784 198.437 454.94 198.281 455.095 197.969C455.251 197.658 455.095 197.19 454.784 196.879H454.628C454.317 196.723 453.849 196.879 453.538 197.19C453.382 197.502 453.538 197.969 453.849 198.281H454.005C454.316 198.437 454.316 198.437 454.472 198.437ZM448.864 195.32C449.176 195.32 449.332 195.165 449.487 194.853C449.643 194.541 449.487 194.074 449.176 193.762H449.02C448.708 193.606 448.241 193.762 447.93 194.074C447.774 194.385 447.93 194.853 448.241 195.165H448.397C448.708 195.32 448.864 195.32 448.864 195.32ZM443.412 192.204C443.724 192.204 443.879 192.048 444.035 191.736C444.191 191.425 444.035 190.957 443.724 190.646C443.412 190.49 442.789 190.49 442.633 190.957C442.477 191.269 442.477 191.736 442.945 192.048H443.1C443.1 192.204 443.256 192.204 443.412 192.204ZM437.804 189.087C438.116 189.087 438.271 188.931 438.427 188.62C438.583 188.308 438.427 187.841 438.116 187.529C437.804 187.373 437.181 187.373 437.025 187.841C436.869 188.152 436.869 188.62 437.337 188.931H437.492C437.492 189.087 437.648 189.087 437.804 189.087ZM432.196 185.971C432.508 185.971 432.663 185.815 432.819 185.503C432.975 185.192 432.819 184.724 432.508 184.412C432.196 184.257 431.573 184.257 431.417 184.724C431.261 185.036 431.261 185.503 431.729 185.815H431.884C432.04 185.971 432.04 185.971 432.196 185.971ZM426.588 182.854C426.9 182.854 427.055 182.698 427.211 182.387C427.367 182.075 427.211 181.608 426.9 181.296C426.588 181.14 425.965 181.14 425.809 181.608C425.653 181.919 425.653 182.387 426.121 182.698H426.276C426.432 182.854 426.588 182.854 426.588 182.854ZM421.136 179.893C421.447 179.893 421.603 179.738 421.759 179.426C421.915 179.114 421.759 178.647 421.447 178.335C421.136 178.179 420.513 178.179 420.357 178.647C420.201 178.959 420.201 179.426 420.668 179.738H420.824C420.824 179.738 420.98 179.893 421.136 179.893ZM415.528 176.777C415.839 176.777 415.995 176.621 416.151 176.309C416.307 175.998 416.151 175.53 415.839 175.219C415.528 175.063 414.905 175.063 414.749 175.53C414.593 175.842 414.593 176.309 415.06 176.621H415.216C415.216 176.621 415.372 176.777 415.528 176.777ZM409.92 173.66C410.231 173.66 410.387 173.505 410.543 173.193C410.699 172.881 410.543 172.414 410.231 172.102H410.075C409.764 171.946 409.297 172.102 408.985 172.414C408.829 172.725 408.985 173.193 409.297 173.505H409.452C409.764 173.505 409.764 173.66 409.92 173.66ZM404.312 170.544C404.623 170.544 404.779 170.388 404.935 170.076C405.091 169.765 404.935 169.297 404.623 168.986C404.312 168.83 403.689 168.83 403.533 169.297C403.377 169.609 403.377 170.076 403.689 170.388H403.844C404.156 170.388 404.312 170.544 404.312 170.544ZM398.859 167.427C399.171 167.427 399.327 167.271 399.483 166.96C399.638 166.648 399.483 166.181 399.171 165.869H399.015C398.704 165.713 398.236 165.869 397.925 166.181C397.769 166.492 397.925 166.96 398.236 167.271H398.392C398.548 167.271 398.704 167.427 398.859 167.427ZM393.251 164.311C393.563 164.311 393.719 164.155 393.875 163.843C394.03 163.532 393.875 163.064 393.563 162.752H393.407C393.096 162.597 392.628 162.752 392.317 163.064C392.161 163.376 392.317 163.843 392.628 164.155H392.784C392.94 164.311 393.096 164.311 393.251 164.311ZM387.643 161.194C387.955 161.194 388.111 161.038 388.267 160.727C388.422 160.415 388.267 159.948 387.955 159.636C387.643 159.48 387.02 159.48 386.865 159.948C386.709 160.259 386.709 160.727 387.02 161.038H387.176C387.332 161.194 387.488 161.194 387.643 161.194ZM382.035 158.078C382.347 158.078 382.503 157.922 382.659 157.61C382.814 157.299 382.659 156.831 382.347 156.519C382.035 156.364 381.412 156.364 381.257 156.831C381.101 157.143 381.101 157.61 381.412 157.922H381.568C381.88 158.078 382.035 158.078 382.035 158.078ZM376.583 154.961C376.895 154.961 377.05 154.805 377.206 154.494C377.362 154.182 377.206 153.715 376.895 153.403H376.739C376.427 153.247 375.96 153.403 375.648 153.715C375.493 154.026 375.648 154.494 375.96 154.805H376.116C376.272 154.961 376.427 154.961 376.583 154.961ZM370.975 151.845C371.287 151.845 371.442 151.689 371.598 151.377C371.754 151.065 371.598 150.598 371.287 150.286H371.131C370.819 150.13 370.352 150.286 370.04 150.598C369.885 150.91 370.04 151.377 370.352 151.689H370.508C370.664 151.845 370.819 151.845 370.975 151.845ZM365.367 148.728C365.679 148.728 365.834 148.572 365.99 148.261C366.146 147.949 365.99 147.481 365.679 147.17C365.367 147.014 364.744 147.014 364.588 147.481C364.432 147.793 364.432 148.261 364.744 148.572H364.9C365.056 148.728 365.211 148.728 365.367 148.728ZM359.759 145.611C360.071 145.611 360.226 145.456 360.382 145.144C360.538 144.832 360.382 144.365 360.071 144.053C359.759 143.897 359.136 143.897 358.98 144.365C358.824 144.677 358.824 145.144 359.136 145.456H359.292C359.603 145.611 359.759 145.611 359.759 145.611ZM354.307 142.495C354.618 142.495 354.774 142.339 354.93 142.027C355.086 141.716 354.93 141.248 354.618 140.937H354.463C354.151 140.781 353.684 140.937 353.372 141.248C353.216 141.56 353.372 142.027 353.684 142.339H353.84C353.995 142.495 354.151 142.495 354.307 142.495ZM348.699 139.378C349.01 139.378 349.166 139.223 349.322 138.911C349.478 138.599 349.322 138.132 349.01 137.82H348.855C348.543 137.664 348.076 137.82 347.764 138.132C347.608 138.443 347.764 138.911 348.076 139.223H348.232C348.387 139.378 348.543 139.378 348.699 139.378ZM343.091 136.262C343.402 136.262 343.558 136.106 343.714 135.794C343.87 135.483 343.714 135.015 343.402 134.704C343.091 134.548 342.468 134.548 342.312 135.015C342.156 135.327 342.156 135.794 342.468 136.106H342.624C342.779 136.262 342.935 136.262 343.091 136.262ZM337.483 133.145C337.794 133.145 337.95 132.989 338.106 132.678C338.262 132.366 338.106 131.899 337.794 131.587C337.483 131.431 336.86 131.431 336.704 131.899C336.548 132.21 336.548 132.678 336.86 132.989H337.016C337.327 133.145 337.483 133.145 337.483 133.145ZM332.031 130.029C332.342 130.029 332.498 129.873 332.654 129.561C332.809 129.25 332.654 128.782 332.342 128.47C332.031 128.315 331.407 128.315 331.252 128.782C331.096 129.094 331.096 129.561 331.563 129.873H331.719C331.719 130.029 331.875 130.029 332.031 130.029ZM326.423 126.912C326.734 126.912 326.89 126.756 327.046 126.445C327.201 126.133 327.046 125.666 326.734 125.354H326.578C326.267 125.198 325.799 125.354 325.488 125.666C325.332 125.977 325.488 126.445 325.799 126.756H325.955C326.111 126.912 326.267 126.912 326.423 126.912ZM320.815 123.796C321.126 123.796 321.282 123.64 321.438 123.328C321.593 123.017 321.438 122.549 321.126 122.237C320.815 122.082 320.191 122.082 320.036 122.549C319.88 122.861 319.88 123.328 320.347 123.64H320.503C320.503 123.796 320.659 123.796 320.815 123.796ZM315.207 120.679C315.518 120.679 315.674 120.523 315.83 120.212C315.985 119.9 315.83 119.433 315.518 119.121C315.207 118.965 314.583 118.965 314.428 119.433C314.272 119.744 314.272 120.212 314.739 120.523H314.895C315.051 120.679 315.207 120.679 315.207 120.679ZM309.754 117.563C310.066 117.563 310.222 117.407 310.377 117.095C310.533 116.783 310.377 116.316 310.066 116.004C309.754 115.848 309.131 115.848 308.975 116.316C308.82 116.628 308.82 117.095 309.287 117.407H309.443C309.443 117.563 309.599 117.563 309.754 117.563ZM304.146 114.446C304.458 114.446 304.614 114.29 304.769 113.979C304.925 113.667 304.769 113.199 304.458 112.888C304.146 112.732 303.523 112.732 303.367 113.199C303.212 113.511 303.212 113.979 303.679 114.29H303.835C303.835 114.446 303.991 114.446 304.146 114.446ZM298.538 111.329C298.85 111.329 299.006 111.174 299.161 110.862C299.317 110.55 299.161 110.083 298.85 109.771H298.694C298.382 109.615 297.915 109.771 297.604 110.083C297.448 110.395 297.604 110.862 297.915 111.174H298.071C298.227 111.329 298.382 111.329 298.538 111.329ZM292.93 108.213C293.242 108.213 293.398 108.057 293.553 107.745C293.709 107.434 293.553 106.966 293.242 106.655C292.93 106.499 292.307 106.499 292.151 106.966C291.996 107.278 291.996 107.745 292.307 108.057H292.463C292.774 108.213 292.774 108.213 292.93 108.213ZM287.478 105.096C287.79 105.096 287.945 104.941 288.101 104.629C288.257 104.317 288.101 103.85 287.79 103.538C287.478 103.382 286.855 103.382 286.699 103.85C286.543 104.161 286.543 104.629 286.855 104.941H287.011C287.166 105.096 287.322 105.096 287.478 105.096ZM281.87 102.136C282.182 102.136 282.337 101.98 282.493 101.668C282.649 101.357 282.493 100.889 282.182 100.577H282.026C281.714 100.422 281.247 100.577 280.935 100.889C280.78 101.201 280.935 101.668 281.247 101.98H281.403C281.558 101.98 281.714 102.136 281.87 102.136ZM276.262 99.0191C276.574 99.0191 276.729 98.8633 276.885 98.5517C277.041 98.24 276.885 97.7725 276.574 97.4609C276.262 97.305 275.639 97.3051 275.483 97.7725C275.327 98.0842 275.327 98.5517 275.639 98.8633H275.795C275.95 98.8633 276.106 99.0191 276.262 99.0191Z" fill="#BDCEFA"/>
<path d="M499.025 223.37C499.493 223.37 499.805 223.058 499.805 222.591C499.805 222.279 499.649 221.967 499.337 221.811C499.025 221.655 498.402 221.655 498.246 222.123C498.09 222.435 498.09 222.902 498.402 223.058C498.558 223.214 498.714 223.37 499.025 223.37Z" fill="#BDCEFA"/>
<path d="M499.026 269.806C499.493 269.806 499.805 269.494 499.805 269.027V268.871C499.805 268.404 499.493 268.092 499.026 268.092C498.558 268.092 498.247 268.404 498.247 268.871V269.027C498.247 269.339 498.558 269.806 499.026 269.806ZM499.026 263.105C499.493 263.105 499.805 262.794 499.805 262.326V262.171C499.805 261.703 499.493 261.391 499.026 261.391C498.558 261.391 498.247 261.703 498.247 262.171V262.326C498.247 262.794 498.558 263.105 499.026 263.105ZM499.026 256.561C499.493 256.561 499.805 256.249 499.805 255.782V255.626C499.805 255.158 499.493 254.847 499.026 254.847C498.558 254.847 498.247 255.158 498.247 255.626V255.782C498.247 256.093 498.558 256.561 499.026 256.561ZM499.026 249.86C499.493 249.86 499.805 249.548 499.805 249.081V248.925C499.805 248.458 499.493 248.146 499.026 248.146C498.558 248.146 498.247 248.458 498.247 248.925V249.081C498.247 249.548 498.558 249.86 499.026 249.86ZM499.026 243.315C499.493 243.315 499.805 243.004 499.805 242.536V242.38C499.805 241.913 499.493 241.601 499.026 241.601C498.558 241.601 498.247 241.913 498.247 242.38V242.536C498.247 242.848 498.558 243.315 499.026 243.315ZM499.026 236.615C499.493 236.615 499.805 236.303 499.805 235.836V235.68C499.805 235.212 499.493 234.901 499.026 234.901C498.558 234.901 498.247 235.212 498.247 235.68V235.836C498.247 236.303 498.558 236.615 499.026 236.615ZM499.026 230.07C499.493 230.07 499.805 229.758 499.805 229.291V229.135C499.805 228.668 499.493 228.356 499.026 228.356C498.558 228.356 498.247 228.668 498.247 229.135V229.291C498.247 229.603 498.558 230.07 499.026 230.07Z" fill="#BDCEFA"/>
<path d="M499.025 276.352C499.493 276.352 499.805 276.04 499.805 275.572C499.805 275.104 499.493 274.792 499.025 274.792C498.558 274.792 498.246 275.104 498.246 275.572C498.246 275.884 498.558 276.352 499.025 276.352Z" fill="#BDCEFA"/>
<path d="M596.541 307.048C596.697 307.048 596.853 306.893 596.853 306.737V244.406L596.697 244.25L560.089 224.927C559.934 224.772 559.622 224.927 559.622 225.083C559.466 225.239 559.622 225.551 559.778 225.551L596.074 244.873V306.737C596.23 306.893 596.386 307.048 596.541 307.048Z" fill="#BDCEFA"/>
<path d="M570.215 407.246C570.682 407.246 570.994 406.934 570.994 406.467V406.311C570.994 405.843 570.682 405.532 570.215 405.532C569.747 405.532 569.436 405.843 569.436 406.311C569.436 406.778 569.903 407.246 570.215 407.246ZM570.215 400.857C570.682 400.857 570.994 400.545 570.994 400.078V399.922C570.994 399.454 570.682 399.143 570.215 399.143C569.747 399.143 569.436 399.454 569.436 399.922V400.078C569.436 400.545 569.903 400.857 570.215 400.857ZM570.215 394.468C570.682 394.468 570.994 394.156 570.994 393.689V393.533C570.994 393.065 570.682 392.754 570.215 392.754C569.747 392.754 569.436 393.065 569.436 393.533C569.436 394 569.903 394.468 570.215 394.468ZM570.215 388.079C570.682 388.079 570.994 387.767 570.994 387.3V387.144C570.994 386.676 570.682 386.365 570.215 386.365C569.747 386.365 569.436 386.676 569.436 387.144V387.3C569.436 387.767 569.903 388.079 570.215 388.079ZM570.215 381.69C570.682 381.69 570.994 381.378 570.994 380.911V380.755C570.994 380.288 570.682 379.976 570.215 379.976C569.747 379.976 569.436 380.288 569.436 380.755C569.436 381.223 569.903 381.69 570.215 381.69ZM570.215 375.301C570.682 375.301 570.994 374.989 570.994 374.522V374.366C570.994 373.899 570.682 373.587 570.215 373.587C569.747 373.587 569.436 373.899 569.436 374.366C569.436 374.834 569.903 375.301 570.215 375.301ZM570.215 368.912C570.682 368.912 570.994 368.601 570.994 368.133V367.977C570.994 367.51 570.682 367.198 570.215 367.198C569.747 367.198 569.436 367.51 569.436 367.977V368.133C569.436 368.601 569.903 368.912 570.215 368.912ZM570.215 362.523C570.682 362.523 570.994 362.212 570.994 361.744V361.588C570.994 361.121 570.682 360.809 570.215 360.809C569.747 360.809 569.436 361.121 569.436 361.588C569.436 362.056 569.903 362.523 570.215 362.523ZM570.215 356.134C570.682 356.134 570.994 355.823 570.994 355.355V355.199C570.994 354.732 570.682 354.42 570.215 354.42C569.747 354.42 569.436 354.732 569.436 355.199V355.355C569.436 355.823 569.903 356.134 570.215 356.134ZM570.215 349.745C570.682 349.745 570.994 349.434 570.994 348.966V348.81C570.994 348.343 570.682 348.031 570.215 348.031C569.747 348.031 569.436 348.343 569.436 348.81C569.436 349.278 569.903 349.745 570.215 349.745ZM570.215 343.356C570.682 343.356 570.994 343.045 570.994 342.577V342.422C570.994 341.954 570.682 341.642 570.215 341.642C569.747 341.642 569.436 341.954 569.436 342.422V342.577C569.436 343.045 569.903 343.356 570.215 343.356ZM570.215 336.968C570.682 336.968 570.994 336.656 570.994 336.188V336.033C570.994 335.565 570.682 335.253 570.215 335.253C569.747 335.253 569.436 335.565 569.436 336.033V336.188C569.436 336.656 569.903 336.968 570.215 336.968ZM570.215 330.579C570.682 330.579 570.994 330.267 570.994 329.8V329.644C570.994 329.176 570.682 328.865 570.215 328.865C569.747 328.865 569.436 329.176 569.436 329.644C569.436 330.111 569.903 330.579 570.215 330.579ZM570.215 324.19C570.682 324.19 570.994 323.878 570.994 323.411V323.255C570.994 322.787 570.682 322.476 570.215 322.476C569.747 322.476 569.436 322.787 569.436 323.255V323.411C569.436 323.878 569.903 324.19 570.215 324.19ZM570.215 317.801C570.682 317.801 570.994 317.489 570.994 317.022V316.866C570.994 316.398 570.682 316.087 570.215 316.087C569.747 316.087 569.436 316.398 569.436 316.866V317.022C569.436 317.489 569.903 317.801 570.215 317.801ZM570.215 311.412C570.682 311.412 570.994 311.1 570.994 310.633V310.477C570.994 310.009 570.682 309.698 570.215 309.698C569.747 309.698 569.436 310.009 569.436 310.477V310.633C569.436 311.1 569.903 311.412 570.215 311.412ZM570.215 305.023C570.682 305.023 570.994 304.711 570.994 304.244V304.088C570.994 303.621 570.682 303.309 570.215 303.309C569.747 303.309 569.436 303.621 569.436 304.088V304.244C569.436 304.711 569.903 305.023 570.215 305.023ZM570.215 298.634C570.682 298.634 570.994 298.322 570.994 297.855V297.699C570.994 297.232 570.682 296.92 570.215 296.92C569.747 296.92 569.436 297.232 569.436 297.699C569.436 298.167 569.903 298.634 570.215 298.634ZM570.215 292.245C570.682 292.245 570.994 291.933 570.994 291.466V291.31C570.994 290.843 570.682 290.531 570.215 290.531C569.747 290.531 569.436 290.843 569.436 291.31V291.466C569.436 291.933 569.903 292.245 570.215 292.245ZM570.215 285.856C570.682 285.856 570.994 285.545 570.994 285.077V284.921C570.994 284.454 570.682 284.142 570.215 284.142C569.747 284.142 569.436 284.454 569.436 284.921V285.077C569.436 285.545 569.903 285.856 570.215 285.856ZM570.215 279.467C570.682 279.467 570.994 279.156 570.994 278.688V278.532C570.994 278.065 570.682 277.753 570.215 277.753C569.747 277.753 569.436 278.065 569.436 278.532V278.688C569.436 279.156 569.903 279.467 570.215 279.467ZM570.215 273.078C570.682 273.078 570.994 272.767 570.994 272.299V272.143C570.994 271.676 570.682 271.364 570.215 271.364C569.747 271.364 569.436 271.676 569.436 272.143V272.299C569.436 272.767 569.903 273.078 570.215 273.078ZM570.215 266.689C570.682 266.689 570.994 266.378 570.994 265.91V265.754C570.994 265.287 570.682 264.975 570.215 264.975C569.747 264.975 569.436 265.287 569.436 265.754C569.436 266.222 569.903 266.689 570.215 266.689ZM570.215 260.301C570.682 260.301 570.994 259.989 570.994 259.521V259.366C570.994 258.898 570.682 258.586 570.215 258.586C569.747 258.586 569.436 258.898 569.436 259.366V259.521C569.436 259.989 569.903 260.301 570.215 260.301ZM570.215 253.912C570.682 253.912 570.994 253.6 570.994 253.132V252.977C570.994 252.509 570.682 252.198 570.215 252.198C569.747 252.198 569.436 252.509 569.436 252.977V253.132C569.436 253.6 569.903 253.912 570.215 253.912ZM570.215 247.523C570.682 247.523 570.994 247.211 570.994 246.744V246.588C570.994 246.12 570.682 245.809 570.215 245.809C569.747 245.809 569.436 246.12 569.436 246.588V246.744C569.436 247.211 569.903 247.523 570.215 247.523ZM570.215 241.134C570.682 241.134 570.994 240.822 570.994 240.355V240.199C570.994 239.731 570.682 239.42 570.215 239.42C569.747 239.42 569.436 239.731 569.436 240.199V240.355C569.436 240.822 569.903 241.134 570.215 241.134ZM570.215 234.745C570.682 234.745 570.994 234.433 570.994 233.966V233.81C570.994 233.342 570.682 233.031 570.215 233.031C569.747 233.031 569.436 233.342 569.436 233.81C569.436 234.277 569.903 234.745 570.215 234.745ZM570.215 228.356C570.682 228.356 570.994 228.044 570.994 227.577V227.421C570.994 226.953 570.682 226.642 570.215 226.642C569.747 226.642 569.436 226.953 569.436 227.421V227.577C569.436 228.044 569.903 228.356 570.215 228.356ZM570.215 221.967C570.682 221.967 570.994 221.655 570.994 221.188V221.032C570.994 220.565 570.682 220.253 570.215 220.253C569.747 220.253 569.436 220.565 569.436 221.032V221.188C569.436 221.655 569.903 221.967 570.215 221.967ZM570.215 215.578C570.682 215.578 570.994 215.266 570.994 214.799V214.643C570.994 214.176 570.682 213.864 570.215 213.864C569.747 213.864 569.436 214.176 569.436 214.643V214.799C569.436 215.266 569.903 215.578 570.215 215.578ZM570.215 209.189C570.682 209.189 570.994 208.878 570.994 208.41V208.254C570.994 207.787 570.682 207.475 570.215 207.475C569.747 207.475 569.436 207.787 569.436 208.254V208.41C569.436 208.878 569.903 209.189 570.215 209.189ZM570.215 202.8C570.682 202.8 570.994 202.489 570.994 202.021V201.865C570.994 201.398 570.682 201.086 570.215 201.086C569.747 201.086 569.436 201.398 569.436 201.865C569.436 202.333 569.903 202.8 570.215 202.8ZM570.215 196.411C570.682 196.411 570.994 196.1 570.994 195.632V195.476C570.994 195.009 570.682 194.697 570.215 194.697C569.747 194.697 569.436 195.009 569.436 195.476V195.632C569.436 196.1 569.903 196.411 570.215 196.411ZM570.215 190.022C570.682 190.022 570.994 189.711 570.994 189.243V189.087C570.994 188.62 570.682 188.308 570.215 188.308C569.747 188.308 569.436 188.62 569.436 189.087V189.243C569.436 189.711 569.903 190.022 570.215 190.022ZM570.215 183.633C570.682 183.633 570.994 183.322 570.994 182.854V182.699C570.994 182.231 570.682 181.919 570.215 181.919C569.747 181.919 569.436 182.231 569.436 182.699V182.854C569.436 183.322 569.903 183.633 570.215 183.633ZM570.215 177.245C570.682 177.245 570.994 176.933 570.994 176.465V176.31C570.994 175.842 570.682 175.53 570.215 175.53C569.747 175.53 569.436 175.842 569.436 176.31V176.465C569.436 176.933 569.903 177.245 570.215 177.245ZM567.255 172.726C567.567 172.726 567.722 172.57 567.878 172.258C568.034 171.946 568.034 171.479 567.567 171.167H567.411C567.099 171.011 566.632 171.011 566.32 171.479C566.165 171.791 566.165 172.258 566.632 172.57H566.788C566.943 172.57 567.099 172.726 567.255 172.726ZM561.647 169.453C561.959 169.453 562.27 169.297 562.27 169.142C562.426 168.83 562.426 168.362 562.114 168.051H561.959C561.647 167.895 561.18 167.895 560.868 168.362C560.712 168.674 560.712 169.142 561.18 169.453C561.335 169.453 561.491 169.453 561.647 169.453ZM556.039 166.337C556.35 166.337 556.662 166.181 556.662 166.025C556.818 165.713 556.818 165.246 556.506 164.934H556.35C556.039 164.778 555.572 164.778 555.26 165.246C555.104 165.558 555.104 166.025 555.572 166.337C555.727 166.181 555.883 166.337 556.039 166.337ZM550.587 163.22C550.898 163.22 551.054 163.064 551.21 162.753C551.366 162.441 551.366 161.973 550.898 161.662H550.742C550.431 161.506 549.964 161.506 549.652 161.974C549.496 162.285 549.496 162.753 549.964 163.064H550.119C550.431 163.064 550.431 163.22 550.587 163.22ZM544.979 159.948C545.29 159.948 545.602 159.792 545.602 159.636C545.758 159.324 545.758 158.857 545.446 158.545H545.29C544.979 158.389 544.511 158.389 544.2 158.857C544.044 159.169 544.044 159.636 544.511 159.948C544.667 159.948 544.823 159.948 544.979 159.948ZM539.526 156.831C539.838 156.831 540.15 156.675 540.15 156.52C540.305 156.208 540.305 155.74 539.994 155.429H539.838C539.526 155.273 539.059 155.273 538.748 155.74C538.592 156.052 538.592 156.52 539.059 156.831C539.215 156.675 539.371 156.831 539.526 156.831ZM533.918 153.715C534.23 153.715 534.386 153.559 534.542 153.247C534.697 152.936 534.697 152.468 534.23 152.156H534.074C533.763 152.001 533.295 152.001 532.984 152.468C532.828 152.78 532.828 153.247 533.295 153.559H533.451C533.763 153.715 533.918 153.715 533.918 153.715ZM528.31 150.442C528.622 150.442 528.934 150.286 528.934 150.131C529.089 149.819 529.089 149.351 528.778 149.04H528.622C528.31 148.884 527.843 148.884 527.531 149.351C527.376 149.663 527.376 150.131 527.843 150.442C527.999 150.442 528.155 150.442 528.31 150.442ZM522.858 147.326C523.17 147.326 523.481 147.17 523.481 147.014C523.637 146.702 523.637 146.235 523.325 145.923H523.17C522.858 145.767 522.391 145.767 522.079 146.235C521.923 146.547 521.923 147.014 522.391 147.326C522.547 147.17 522.702 147.326 522.858 147.326ZM517.406 144.209C517.717 144.209 517.873 144.053 518.029 143.742C518.185 143.43 518.185 142.963 517.717 142.651H517.562C517.25 142.495 516.783 142.495 516.471 142.963C516.315 143.274 516.315 143.742 516.783 144.053H516.939C517.094 144.209 517.25 144.209 517.406 144.209ZM511.642 140.937C511.954 140.937 512.265 140.781 512.265 140.625C512.421 140.314 512.421 139.846 512.109 139.534H511.954C511.642 139.379 511.175 139.379 510.863 139.846C510.707 140.158 510.707 140.625 511.175 140.937C511.486 140.937 511.642 140.937 511.642 140.937ZM506.19 137.82C506.501 137.82 506.813 137.664 506.813 137.509C506.969 137.197 506.969 136.729 506.657 136.418H506.501C506.19 136.262 505.723 136.262 505.411 136.729C505.255 137.041 505.255 137.509 505.723 137.82C505.878 137.664 506.034 137.82 506.19 137.82ZM500.738 134.704C501.049 134.704 501.205 134.548 501.361 134.236C501.517 133.925 501.517 133.457 501.049 133.145H500.893C500.582 132.99 500.115 132.99 499.803 133.457C499.647 133.769 499.647 134.236 500.115 134.548H500.27C500.426 134.704 500.582 134.704 500.738 134.704Z" fill="#BDCEFA"/>
<path d="M459.144 180.206C459.456 180.206 459.767 180.05 459.767 179.894C459.923 179.582 459.923 179.115 459.612 178.803H459.456C459.144 178.647 458.677 178.647 458.365 179.115C458.21 179.427 458.21 179.894 458.677 180.206C458.833 180.206 458.988 180.206 459.144 180.206ZM461.792 178.336C462.26 178.336 462.571 178.024 462.571 177.557V177.401C462.571 176.933 462.26 176.622 461.792 176.622C461.325 176.622 461.014 176.933 461.014 177.401V177.557C461.014 178.024 461.325 178.336 461.792 178.336ZM453.692 176.933C454.003 176.933 454.315 176.778 454.315 176.622C454.471 176.31 454.471 175.843 454.159 175.531H454.003C453.692 175.375 453.225 175.375 452.913 175.843C452.757 176.154 452.757 176.622 453.225 176.933C453.38 176.933 453.536 176.933 453.692 176.933ZM448.084 173.817C448.395 173.817 448.707 173.661 448.707 173.505C448.863 173.194 448.863 172.726 448.551 172.414H448.395C448.084 172.259 447.617 172.259 447.305 172.726C447.149 173.038 447.149 173.505 447.617 173.817C447.772 173.817 447.928 173.817 448.084 173.817ZM461.792 171.947C462.26 171.947 462.571 171.635 462.571 171.168V171.012C462.571 170.544 462.26 170.233 461.792 170.233C461.325 170.233 461.014 170.544 461.014 171.012V171.168C461.014 171.635 461.325 171.947 461.792 171.947ZM442.632 170.544C442.943 170.544 443.255 170.389 443.255 170.233C443.411 169.921 443.411 169.454 443.099 169.142H442.943C442.632 168.986 442.164 168.986 441.853 169.454C441.697 169.765 441.697 170.233 442.164 170.544C442.32 170.544 442.476 170.544 442.632 170.544ZM437.179 167.428C437.491 167.428 437.647 167.272 437.803 167.116C437.958 166.805 437.958 166.337 437.491 166.025L437.335 165.87C437.024 165.714 436.556 165.714 436.245 166.181C436.089 166.493 436.089 166.96 436.556 167.272L436.712 167.428C436.868 167.428 437.024 167.428 437.179 167.428ZM461.792 165.558C462.26 165.558 462.571 165.246 462.571 164.779C462.571 164.311 462.26 164 461.792 164C461.325 164 461.014 164.311 461.014 164.779V164.935C461.014 165.246 461.325 165.558 461.792 165.558ZM431.571 164.156C431.883 164.156 432.195 164 432.195 163.844C432.35 163.532 432.35 163.065 432.039 162.753L431.883 162.597C431.571 162.441 431.104 162.441 430.793 162.909C430.637 163.221 430.637 163.688 431.104 164C431.26 164.156 431.416 164.156 431.571 164.156ZM425.963 161.039C426.275 161.039 426.587 160.883 426.587 160.727C426.742 160.416 426.742 159.948 426.431 159.637L426.275 159.481C425.963 159.325 425.496 159.325 425.185 159.792C425.029 160.104 425.029 160.572 425.496 160.883C425.652 160.883 425.808 161.039 425.963 161.039ZM461.792 159.169C462.26 159.169 462.571 158.857 462.571 158.39V158.234C462.571 157.767 462.26 157.455 461.792 157.455C461.325 157.455 461.014 157.767 461.014 158.234V158.39C461.014 158.857 461.325 159.169 461.792 159.169ZM420.511 157.922C420.823 157.922 420.979 157.767 421.134 157.611C421.29 157.299 421.29 156.832 420.823 156.52L420.667 156.364C420.355 156.208 419.888 156.208 419.577 156.676C419.421 156.987 419.421 157.455 419.888 157.767L420.044 157.922C420.2 157.767 420.355 157.922 420.511 157.922ZM414.903 154.65C415.215 154.65 415.526 154.494 415.526 154.338C415.682 154.027 415.682 153.559 415.371 153.248L415.215 153.092C414.903 152.936 414.436 152.936 414.124 153.403C413.969 153.715 413.969 154.183 414.436 154.494C414.592 154.494 414.747 154.65 414.903 154.65ZM461.792 152.78C462.26 152.78 462.571 152.469 462.571 152.001V151.845C462.571 151.378 462.26 151.066 461.792 151.066C461.325 151.066 461.014 151.378 461.014 151.845V152.001C461.014 152.469 461.325 152.78 461.792 152.78ZM409.451 151.378C409.763 151.378 410.074 151.222 410.074 151.066C410.23 150.754 410.23 150.287 409.918 149.975H409.763C409.451 149.819 408.984 149.819 408.672 150.287C408.516 150.599 408.516 151.066 408.984 151.378C409.139 151.378 409.295 151.378 409.451 151.378ZM403.999 148.261C404.31 148.261 404.466 148.105 404.622 147.794C404.778 147.482 404.778 147.015 404.31 146.703H404.155C403.843 146.547 403.376 146.547 403.064 147.015C402.908 147.326 402.908 147.794 403.376 148.105H403.531C403.687 148.261 403.843 148.261 403.999 148.261ZM398.391 144.989C398.702 144.989 399.014 144.833 399.014 144.677C399.17 144.365 399.17 143.898 398.858 143.586H398.702C398.391 143.431 397.923 143.431 397.612 143.898C397.456 144.21 397.456 144.677 397.923 144.989C398.079 144.989 398.235 144.989 398.391 144.989Z" fill="#BDCEFA"/>
<path d="M70.9479 144.209L127.495 176.933C131.546 179.27 138.867 178.959 143.696 176.31L197.907 144.988C202.736 142.183 203.204 137.976 198.998 135.639L142.45 102.915C138.4 100.578 131.078 100.889 126.249 103.538L72.0383 134.86C67.2092 137.664 66.7419 141.872 70.9479 144.209Z" fill="#E8F2FE"/>
<path d="M68.1444 344.915V140.937C68.4559 142.184 69.2348 143.274 70.7926 144.209L127.34 176.933C129.365 178.024 132.013 178.647 134.817 178.491V383.872C132.013 383.872 129.365 383.404 127.34 382.313L70.7926 349.59C68.7675 348.499 67.8328 346.785 68.1444 344.915Z" fill="url(#paint4_linear_906_16379)"/>
<path d="M143.541 176.31L197.752 144.988C200.089 143.742 201.335 142.028 201.647 140.469V344.447C202.114 346.473 200.712 348.81 197.752 350.524L143.541 381.846C141.049 383.248 137.933 384.027 134.818 384.027V178.491C137.933 178.491 141.049 177.712 143.541 176.31Z" fill="#DDDDDD"/>
<path d="M143.541 176.31L197.752 144.988C200.089 143.742 201.335 142.028 201.647 140.469V344.447C202.114 346.473 200.712 348.81 197.752 350.524L143.541 381.846C141.049 383.248 137.933 384.027 134.818 384.027V178.491C137.933 178.491 141.049 177.712 143.541 176.31Z" fill="url(#paint5_linear_906_16379)"/>
<path d="M70.1695 496.535L173.762 554.503C178.28 557.152 186.38 556.84 191.676 553.723L226.103 533.154C231.4 530.038 232.023 525.363 227.35 522.714L124.225 463.499C119.707 460.85 111.606 461.162 106.31 464.279L71.4157 485.939C66.275 489.211 65.6519 493.886 70.1695 496.535Z" fill="#E8F2FE"/>
<path d="M67.209 503.08V492.951C67.5206 494.354 68.4552 495.6 70.1688 496.691L173.761 554.659C175.942 555.905 179.058 556.529 182.173 556.373V568.216C179.058 568.216 176.098 567.748 173.761 566.502L70.1688 508.534C67.8321 506.976 66.8974 504.95 67.209 503.08Z" fill="url(#paint6_linear_906_16379)"/>
<path d="M191.675 553.879L226.102 533.31C228.595 531.908 229.997 530.038 230.464 528.168V538.297C230.931 540.634 229.529 543.127 226.102 544.997L191.675 565.566C188.871 567.125 185.444 568.06 182.017 568.06V556.217C185.444 556.217 189.027 555.438 191.675 553.879Z" fill="url(#paint7_linear_906_16379)"/>
<path d="M27.1731 560.424L130.765 618.392C135.283 621.041 143.383 620.729 148.68 617.612L183.107 597.043C188.403 593.927 189.026 589.252 184.353 586.603L81.228 527.389C76.7105 524.739 68.61 525.051 63.3136 528.168L28.4193 549.828C23.1228 553.1 22.4997 557.775 27.1731 560.424Z" fill="#E8F2FE"/>
<path d="M24.0586 566.812V556.684C24.3702 558.086 25.3048 559.333 27.0184 560.423L130.611 618.391C132.792 619.638 135.907 620.261 139.023 620.105V631.948C135.907 631.948 132.948 631.481 130.611 630.234L27.0184 572.266C24.6817 570.708 23.747 568.838 24.0586 566.812Z" fill="url(#paint8_linear_906_16379)"/>
<path d="M148.682 617.612L183.108 597.043C185.601 595.64 187.003 593.77 187.47 591.9V602.029C187.938 604.367 186.536 606.86 183.108 608.73L148.682 629.299C145.878 630.857 142.45 631.792 139.023 631.792V619.949C142.45 620.105 145.878 619.17 148.682 617.612Z" fill="url(#paint9_linear_906_16379)"/>
<path d="M45.3997 396.182L352.594 573.202C366.459 581.149 390.76 580.214 406.805 571.021L594.207 463.188C610.252 453.994 611.965 439.814 598.101 431.867L285.61 257.496C271.746 249.549 247.444 250.484 231.399 259.678L49.2941 364.861C33.4047 374.055 31.5354 388.235 45.3997 396.182Z" fill="#E8F2FE"/>
<path d="M36.3642 393.532V385.118C37.143 389.325 40.2586 393.221 45.3993 396.181L352.594 573.201C359.292 577.097 368.328 578.811 377.83 578.499V591.901C368.483 592.056 359.292 590.498 352.594 586.602L45.3993 409.583C38.2335 405.375 35.2737 399.454 36.3642 393.532Z" fill="url(#paint10_linear_906_16379)"/>
<path d="M406.805 570.864L594.206 463.187C601.84 458.824 606.201 453.214 607.136 447.916V456.331C608.538 463.187 604.176 470.823 594.206 476.588L406.805 584.421C398.549 589.251 387.956 591.745 377.83 592.056V578.655C387.956 578.188 398.549 575.694 406.805 570.864Z" fill="#C9C9C9"/>
<path d="M406.805 570.864L594.206 463.187C601.84 458.824 606.201 453.214 607.136 447.916V456.331C608.538 463.187 604.176 470.823 594.206 476.588L406.805 584.421C398.549 589.251 387.956 591.745 377.83 592.056V578.655C387.956 578.188 398.549 575.694 406.805 570.864Z" fill="url(#paint11_linear_906_16379)"/>
<path d="M333.9 493.574L398.081 530.661L561.181 436.385L497.156 399.298L333.9 493.574Z" fill="white"/>
<path d="M333.901 493.574V520.22L398.082 557.307V530.661L333.901 493.574Z" fill="url(#paint12_linear_906_16379)"/>
<path d="M561.182 436.385V463.032L398.082 557.307V530.661L561.182 436.385Z" fill="url(#paint13_linear_906_16379)"/>
<path d="M467.092 427.814L495.288 444.02C497.313 445.267 500.896 445.111 503.388 443.709L530.338 428.126C532.674 426.724 532.986 424.698 530.961 423.451L502.765 407.245C500.74 405.999 497.157 406.154 494.665 407.557L467.715 423.14C465.378 424.542 465.067 426.724 467.092 427.814Z" fill="#99CFFF"/>
<path d="M465.845 438.566V426.1C466.001 426.723 466.468 427.347 467.247 427.814L495.443 444.02C496.378 444.644 497.78 444.799 499.182 444.799V457.889C497.78 457.889 496.378 457.733 495.443 457.11L467.247 440.904C466.001 440.436 465.689 439.501 465.845 438.566Z" fill="#70C3FF"/>
<path d="M503.233 443.865L530.182 428.282C531.273 427.659 531.896 426.88 532.052 425.945V438.411C532.208 439.502 531.584 440.593 530.182 441.372L503.233 456.954C501.987 457.733 500.429 458.045 498.871 458.045V444.956C500.585 444.956 502.142 444.488 503.233 443.865Z" fill="#249AEF"/>
<path d="M417.554 456.643L445.75 472.849C447.775 474.095 451.358 473.939 453.85 472.537L480.8 456.954C483.136 455.552 483.448 453.526 481.423 452.279L453.227 436.073C451.202 434.827 447.619 434.983 445.126 436.385L418.177 451.968C415.684 453.37 415.373 455.396 417.554 456.643Z" fill="#F9825D"/>
<path d="M416.152 467.394V454.928C416.307 455.552 416.775 456.175 417.554 456.642L445.75 472.848C446.684 473.472 448.086 473.628 449.488 473.628V486.717C448.086 486.717 446.684 486.561 445.75 485.938L417.554 469.732C416.463 469.109 415.996 468.329 416.152 467.394Z" fill="#FF8661"/>
<path d="M453.693 472.537L480.643 456.954C481.733 456.331 482.356 455.552 482.512 454.617V467.083C482.668 468.174 482.045 469.264 480.643 470.044L453.693 485.626C452.447 486.406 450.889 486.717 449.332 486.717V473.628C450.889 473.628 452.447 473.316 453.693 472.537Z" fill="#D56144"/>
<path d="M366.77 485.783L394.965 501.989C396.991 503.235 400.573 503.08 403.066 501.677L430.015 486.094C432.352 484.692 432.664 482.666 430.639 481.42L402.443 465.213C400.418 463.967 396.835 464.123 394.342 465.525L367.393 481.108C365.056 482.51 364.744 484.692 366.77 485.783Z" fill="#98EF7A"/>
<path d="M365.523 496.535V484.068C365.679 484.692 366.146 485.315 366.925 485.782L395.121 501.988C396.056 502.612 397.458 502.768 398.86 502.768V515.857C397.458 515.857 396.056 515.701 395.121 515.078L366.925 498.872C365.679 498.249 365.367 497.469 365.523 496.535Z" fill="#91E873"/>
<path d="M403.066 501.677L430.016 486.094C431.106 485.47 431.729 484.691 431.885 483.756V496.223C432.041 497.313 431.418 498.404 430.016 499.183L403.066 514.766C401.82 515.545 400.262 515.857 398.704 515.857V502.767C400.262 502.767 401.82 502.456 403.066 501.677Z" fill="#68C945"/>
<path d="M100.855 374.989C76.8518 374.989 57.3932 363.757 57.3932 349.901C57.3932 336.045 76.8518 324.813 100.855 324.813C124.859 324.813 144.317 336.045 144.317 349.901C144.317 363.757 124.859 374.989 100.855 374.989Z" fill="white"/>
<path d="M70.1694 367.666C87.1492 377.483 114.566 377.483 131.546 367.666C139.958 362.835 144.164 356.446 144.32 350.057V377.015C144.32 383.404 140.114 389.949 131.546 394.935C114.566 404.753 87.1492 404.753 70.1694 394.935C61.6016 389.949 57.3956 383.56 57.3956 377.015V350.057C57.5514 356.446 61.7574 362.835 70.1694 367.666Z" fill="url(#paint14_linear_906_16379)"/>
<path d="M100.858 330.89L74.3759 346.161C88.8633 354.576 112.853 354.576 127.341 346.161C141.828 337.747 141.828 323.878 127.341 315.619C119.24 310.944 107.868 308.607 96.3407 309.386L100.858 330.89Z" fill="#76B5CE"/>
<path d="M127.496 346.161C134.662 341.953 138.4 336.499 138.4 330.89V346.317C138.4 351.926 134.817 357.536 127.496 361.743C113.009 370.158 89.0187 370.158 74.5313 361.743V346.161C89.0187 354.575 112.853 354.575 127.496 346.161Z" fill="#249AEF"/>
<path d="M100.858 330.89L74.3759 346.161C88.8633 354.576 112.853 354.576 127.341 346.161C141.828 337.747 141.828 323.878 127.341 315.619C119.24 310.944 107.868 308.607 96.3407 309.386L100.858 330.89Z" fill="#99CFFF"/>
<path d="M100.858 314.995L96.4966 293.491C88.0846 294.115 80.4515 296.296 74.3762 299.724C59.8888 308.139 59.8888 322.008 74.3762 330.266L100.858 314.995Z" fill="#F97F58"/>
<path d="M100.858 314.996V330.89L74.3761 346.161V330.267L100.858 314.996Z" fill="#D56144"/>
<path d="M63.471 346.161V314.996C63.471 320.45 67.2097 326.059 74.3755 330.111V346.005V361.588C67.0539 357.536 63.471 351.771 63.471 346.161Z" fill="#FF8661"/>
<path d="M190.116 306.892L251.804 271.208C259.126 267.001 258.191 259.677 249.779 254.846C241.367 250.015 228.593 249.392 221.271 253.599L159.583 289.284C152.262 293.491 153.196 300.815 161.608 305.646C170.176 310.476 182.95 311.1 190.116 306.892Z" fill="white"/>
<path d="M161.766 305.646C170.178 310.477 182.952 311.1 190.273 306.893L251.961 271.208C255.077 269.339 256.791 267.001 256.946 264.352V282.584V282.74C256.946 285.389 255.233 287.882 251.961 289.752L190.273 325.436C182.952 329.644 170.178 329.176 161.766 324.19C156.937 321.385 154.6 317.957 154.756 314.528V296.141C154.756 299.569 157.092 302.997 161.766 305.646Z" fill="url(#paint15_linear_906_16379)"/>
<path d="M225.636 265.91C228.752 267.78 233.892 267.78 237.164 265.91C240.279 264.04 240.279 261.079 237.164 259.365C234.048 257.495 228.908 257.495 225.636 259.365C222.365 261.079 222.365 264.04 225.636 265.91Z" fill="#BDCEFA"/>
<path d="M207.721 276.194C210.837 278.064 215.977 278.064 219.249 276.194C222.364 274.324 222.364 271.364 219.249 269.65C216.133 267.78 210.993 267.78 207.721 269.65C204.606 271.364 204.606 274.324 207.721 276.194Z" fill="#BDCEFA"/>
<path d="M189.807 286.479C192.923 288.349 198.063 288.349 201.335 286.479C204.45 284.609 204.45 281.648 201.335 279.934C198.219 278.064 193.078 278.064 189.807 279.934C186.692 281.804 186.692 284.765 189.807 286.479Z" fill="#BDCEFA"/>
<path d="M171.893 296.919C175.008 298.789 180.149 298.789 183.42 296.919C186.536 295.049 186.536 292.089 183.42 290.375C180.305 288.505 175.164 288.505 171.893 290.375C168.777 292.089 168.777 295.049 171.893 296.919Z" fill="#BDCEFA"/>
<path d="M215.975 274.793C213.795 275.104 211.769 273.702 211.458 271.52L207.563 249.393C207.252 247.211 208.654 245.185 210.835 244.874C213.016 244.562 215.041 245.965 215.352 248.146L219.247 270.274C219.558 272.299 218.156 274.325 215.975 274.793Z" fill="#F9AB83"/>
<path d="M233.734 276.195C233.111 278.221 230.775 279.468 228.749 278.845L215.041 274.793C212.86 274.637 211.146 272.767 211.302 270.586C211.458 268.404 213.327 266.69 215.508 266.846L231.086 271.209C233.111 271.832 234.357 274.014 233.734 276.195Z" fill="#F9AB83"/>
<path d="M192.61 341.486C192.61 341.954 192.922 342.421 193.7 342.889C193.856 343.044 193.7 340.084 194.323 340.551C194.479 340.707 203.982 348.187 209.434 346.784C210.057 346.629 210.213 346.161 210.213 345.694V344.447C210.213 343.044 208.344 341.019 205.228 338.058C201.801 334.786 199.776 332.76 194.791 335.565C193.389 336.344 192.766 336.967 192.766 337.591L192.61 341.486Z" fill="#010400"/>
<path d="M205.228 338.058C209.279 341.954 211.46 344.291 209.434 345.538C207.409 346.784 203.203 344.914 198.997 341.642C195.259 338.837 189.806 338.526 194.791 335.565C199.776 332.76 201.957 334.786 205.228 338.058Z" fill="#484968"/>
<path d="M201.178 336.188L200.867 299.725L188.872 303.62L190.897 309.542C190.897 309.542 189.962 317.489 192.455 325.592C192.455 325.592 194.168 329.176 193.857 337.279C193.857 337.279 198.218 339.772 201.178 336.188Z" fill="#F1AC85"/>
<path d="M204.293 331.981C204.293 332.448 204.605 332.916 205.383 333.383C205.539 333.539 205.383 330.578 206.007 331.046C206.162 331.202 215.665 338.681 221.117 337.279C221.74 337.123 221.896 336.656 221.896 336.188V334.942C221.896 333.539 220.027 331.513 216.911 328.553C213.484 325.28 211.459 323.255 206.474 326.059C205.072 326.839 204.449 327.462 204.449 328.085L204.293 331.981Z" fill="#010400"/>
<path d="M216.911 328.553C220.961 332.449 223.142 334.786 221.117 336.033C219.091 337.279 214.885 335.41 210.679 332.137C206.941 329.332 201.489 329.021 206.473 326.06C211.458 323.255 213.483 325.281 216.911 328.553Z" fill="#484968"/>
<path d="M212.861 326.683L212.55 290.219L200.555 294.115L202.58 300.036C202.58 300.036 201.645 307.984 204.138 316.087C204.138 316.087 205.851 319.671 205.54 327.774C205.384 327.618 209.902 330.111 212.861 326.683Z" fill="#E28C66"/>
<path d="M184.509 291.154V304.555C184.509 304.555 200.243 309.853 215.197 291.154V278.064L184.509 291.154Z" fill="#9CE3F0"/>
<path d="M192.143 296.296C192.298 296.452 192.454 296.452 192.61 296.452C195.258 296.608 204.761 294.582 214.263 283.83C215.042 282.895 215.509 281.804 215.509 280.713V250.327C215.509 247.99 214.73 246.431 213.328 245.652L206.163 241.445C204.916 240.666 203.047 240.822 201.022 241.912L191.208 247.522C187.313 249.86 184.042 255.314 184.042 259.988V290.686C184.042 291.465 184.354 291.933 184.665 292.089L192.143 296.296Z" fill="#54A5F8"/>
<path d="M194.79 249.549C194.79 250.328 195.257 251.107 196.192 251.575C198.217 252.665 201.333 252.665 203.358 251.575C204.292 250.951 204.916 250.172 204.76 249.549V242.848C204.76 242.069 204.292 241.29 203.358 240.822C201.333 239.732 198.217 239.732 196.192 240.822C195.257 241.446 194.634 242.225 194.79 242.848V249.549Z" fill="#DD936F"/>
<path d="M195.258 240.199C195.258 241.914 194.167 242.537 192.609 241.758C191.207 240.978 189.961 238.953 189.961 237.238C189.961 235.524 191.051 234.901 192.609 235.68C194.011 236.459 195.258 238.485 195.258 240.199Z" fill="#F9AB83"/>
<path d="M208.81 257.963C208.81 257.963 222.207 245.808 214.107 223.992L207.875 246.587L208.81 257.963Z" fill="#3F4893"/>
<path d="M196.61 245.745C189.159 243.979 184.551 236.505 186.317 229.053C188.082 221.6 195.553 216.99 203.004 218.756C210.454 220.523 215.062 227.996 213.297 235.449C211.531 242.901 204.06 247.511 196.61 245.745Z" fill="#F1AC85"/>
<path d="M203.98 257.963C203.98 257.963 193.699 246.587 200.865 225.395L213.795 229.758C213.795 229.758 218.156 218.85 203.669 215.578C203.669 215.578 194.011 213.396 190.584 221.499C190.584 221.499 182.795 222.123 185.754 238.173C185.599 238.484 186.066 253.6 203.98 257.963Z" fill="#3F4893"/>
<path d="M194.791 283.674C192.766 284.297 190.43 283.051 189.962 280.869L183.887 258.119C183.264 256.093 184.51 253.755 186.691 253.288C188.716 252.665 191.053 253.911 191.52 256.093L197.595 278.844C198.063 280.869 196.972 283.051 194.791 283.674Z" fill="#F9AB83"/>
<path d="M216.912 284.453C216.444 286.635 214.419 287.882 212.238 287.57L193.856 283.83C191.676 283.83 189.806 282.116 189.806 279.934C189.806 277.753 191.52 275.883 193.701 275.883L213.952 279.778C216.133 280.246 217.379 282.272 216.912 284.453Z" fill="#F9AB83"/>
<path d="M466.779 377.482V240.978C466.779 237.55 464.91 234.277 461.95 232.563L297.916 137.976C291.529 134.236 283.428 138.911 283.428 146.391V282.895C283.428 286.324 285.298 289.596 288.257 291.31L452.136 385.897C458.679 389.481 466.779 384.962 466.779 377.482Z" fill="white"/>
<path d="M456.965 383.872C460.08 383.872 463.352 381.378 463.352 377.483V240.978C463.352 238.641 462.105 236.615 460.08 235.368L296.357 140.781C295.423 140.158 294.332 139.846 293.086 139.846C289.97 139.846 286.699 142.339 286.699 146.235V282.74C286.699 285.077 287.945 287.103 289.97 288.35L453.849 383.093C454.784 383.56 455.874 383.872 456.965 383.872Z" fill="url(#paint16_linear_906_16379)"/>
<path d="M466.779 377.482V240.978C466.779 237.55 464.91 234.277 461.95 232.563L297.915 137.976C295.267 136.418 292.152 136.262 289.659 137.353L293.554 135.327C296.514 133.145 300.564 132.678 304.147 134.704L468.025 229.447C470.985 231.161 472.854 234.433 472.854 237.861V374.366C472.854 377.638 471.297 380.443 468.804 382.157H468.648C468.025 382.625 467.246 382.936 466.623 383.248L462.262 385.585C464.91 383.716 466.779 380.911 466.779 377.482Z" fill="url(#paint17_linear_906_16379)"/>
<path d="M452.136 402.571L334.057 470.823C331.097 472.537 327.358 472.537 324.398 470.823L160.364 376.08C153.977 372.34 153.977 362.991 160.364 359.251L278.444 290.998C281.403 289.284 285.142 289.284 288.102 290.998L452.136 385.897C458.679 389.481 458.679 398.831 452.136 402.571Z" fill="white"/>
<path d="M160.364 376.08L324.399 470.823C327.358 472.537 331.097 472.537 334.057 470.823L452.137 402.571C455.408 400.701 456.966 397.428 456.966 394.156V403.038C456.966 406.31 455.408 409.583 452.137 411.453L334.057 479.705C331.097 481.419 327.358 481.419 324.399 479.705L160.52 384.962C157.404 383.248 155.847 380.132 155.691 377.015V376.859C155.691 376.703 155.691 376.392 155.691 376.236V368.133C155.691 371.249 157.249 374.366 160.364 376.08Z" fill="url(#paint18_linear_906_16379)"/>
<path d="M221.585 349.433L362.408 430.619C367.861 433.736 377.519 433.424 383.906 429.684L426.277 405.22C432.664 401.48 433.288 396.026 427.835 392.909L287.012 311.567C281.559 308.451 271.901 308.762 265.514 312.502L223.143 336.967C216.756 340.707 216.133 346.161 221.585 349.433Z" fill="#B8D0F6"/>
<path d="M427.679 394.935L286.855 313.593C281.403 310.476 271.745 310.788 265.358 314.528L222.986 338.993C220.027 340.707 218.313 342.889 217.846 345.07C217.223 342.421 219.092 339.304 222.986 337.123L265.358 312.658C271.745 308.918 281.247 308.607 286.855 311.723L427.679 393.065C430.483 394.779 431.729 396.961 431.262 399.454C430.95 397.584 429.704 396.026 427.679 394.935Z" fill="#99B6E0"/>
<path d="M314.117 348.81L321.594 344.447L329.071 348.81L321.594 353.173L314.117 348.81ZM328.76 357.225L336.237 352.862L343.714 357.225L336.237 361.588L328.76 357.225ZM299.318 340.396L306.795 336.032L314.272 340.396L306.795 344.759L299.318 340.396ZM256.79 344.914L241.212 335.877L248.69 331.513L264.267 340.551L256.79 344.914ZM253.83 328.553L261.308 324.189L268.785 328.553L261.308 332.916L253.83 328.553ZM284.674 331.825L292.152 327.462L299.629 331.825L292.152 336.188L284.674 331.825ZM343.403 365.795L350.88 361.432L358.358 365.795L350.88 370.159L343.403 365.795ZM266.76 341.954L395.433 416.283L387.955 420.647L259.283 346.317L266.76 341.954ZM358.046 374.21L365.523 369.847L373.001 374.21L365.523 378.573L358.046 374.21ZM272.679 330.89L408.051 409.115L400.573 413.479L265.202 335.253L272.679 330.89ZM236.072 338.837L382.815 423.607L375.337 427.97L228.594 343.2L236.072 338.837ZM387.488 391.195L394.965 386.832L402.443 391.195L394.965 395.558L387.488 391.195ZM372.845 382.781L380.322 378.417L387.8 382.781L380.322 387.144L372.845 382.781Z" fill="#99B6E0"/>
<path d="M314.117 347.564L321.594 343.2L329.071 347.564L321.594 351.927L314.117 347.564ZM328.76 355.978L336.237 351.615L343.714 355.978L336.237 360.341L328.76 355.978ZM299.318 338.993L306.795 334.63L314.272 338.993L306.795 343.356L299.318 338.993ZM256.79 343.512L241.212 334.474L248.69 330.111L264.267 339.149L256.79 343.512ZM253.83 327.306L261.308 322.943L268.785 327.306L261.308 331.669L253.83 327.306ZM284.674 330.578L292.152 326.215L299.629 330.578L292.152 334.942L284.674 330.578ZM343.403 364.393L350.88 360.03L358.358 364.393L350.88 368.756L343.403 364.393ZM266.76 340.707L395.433 415.037L387.955 419.4L259.283 345.07L266.76 340.707ZM358.046 372.963L365.523 368.6L373.001 372.963L365.523 377.327L358.046 372.963ZM272.679 329.488L408.051 407.713L400.573 412.076L265.202 333.851L272.679 329.488ZM236.072 337.591L382.815 422.361L375.337 426.724L228.594 341.954L236.072 337.591ZM387.488 389.949L394.965 385.585L402.443 389.949L394.965 394.312L387.488 389.949ZM372.845 381.378L380.322 377.015L387.8 381.378L380.322 385.741L372.845 381.378Z" fill="#E4F2FF"/>
<path d="M306.795 335.409L299.941 339.461L299.318 339.149L306.795 334.786L314.272 339.149L313.649 339.461L306.795 335.409ZM292.152 326.839L285.298 330.89L284.674 330.578L292.152 326.215L299.629 330.578L299.006 330.89L292.152 326.839ZM321.594 343.824L314.74 347.875L314.117 347.564L321.594 343.2L329.071 347.564L328.448 347.875L321.594 343.824ZM263.644 339.616L248.69 330.89L241.835 334.942L241.212 334.63L248.69 330.267L264.267 339.305L263.644 339.616ZM336.237 352.394L329.383 356.446L328.76 356.134L336.237 351.771L343.714 356.134L343.091 356.446L336.237 352.394ZM261.308 323.566L254.453 327.618L253.83 327.306L261.308 322.943L268.785 327.306L268.162 327.618L261.308 323.566ZM236.072 337.591L382.815 422.361L382.192 422.672L235.916 338.214L229.062 342.265L228.438 341.954L236.072 337.591ZM265.825 334.162L265.202 333.851L272.679 329.488L408.051 407.713L407.428 408.025L272.679 330.111L265.825 334.162ZM394.965 386.209L388.111 390.26L387.488 389.949L394.965 385.585L402.443 389.949L401.82 390.26L394.965 386.209ZM259.906 345.382L259.283 345.07L266.76 340.707L395.433 415.037L394.81 415.348L266.76 341.33L259.906 345.382ZM380.166 377.794L373.312 381.846L372.689 381.534L380.166 377.171L387.644 381.534L387.021 381.846L380.166 377.794ZM350.88 360.809L344.026 364.86L343.403 364.549L350.88 360.186L358.358 364.549L357.734 364.86L350.88 360.809ZM365.523 369.224L358.669 373.275L358.046 372.963L365.523 368.6L373.001 372.963L372.378 373.275L365.523 369.224Z" fill="white"/>
<path d="M233.112 397.116L277.041 422.516C279.69 424.075 284.519 423.919 287.634 422.049L297.293 416.439C300.408 414.569 300.72 411.92 298.071 410.206L254.142 384.806C251.494 383.248 246.665 383.404 243.549 385.274L233.891 390.883C230.775 392.753 230.308 395.558 233.112 397.116Z" fill="#B8D0F6"/>
<path d="M298.072 411.608L254.143 386.209C251.495 384.65 246.665 384.806 243.55 386.676L233.892 392.286C232.49 393.065 231.711 394.156 231.399 395.091C231.088 393.688 231.867 392.13 233.892 390.883L243.55 385.274C246.665 383.404 251.495 383.248 254.143 384.806L298.072 410.362C299.63 411.297 300.097 412.388 299.786 413.634C299.474 412.855 299.007 412.076 298.072 411.608Z" fill="#99B6E0"/>
<path d="M309.911 187.529V182.543C309.911 178.179 313.027 176.465 316.765 178.647L433.599 246.12C437.338 248.302 440.453 253.6 440.453 257.963V262.949L309.911 187.529Z" fill="white"/>
<path d="M428.302 249.549C428.302 251.263 429.548 253.445 431.106 254.224C432.664 255.159 433.911 254.38 433.911 252.666C433.911 250.952 432.664 248.77 431.106 247.991C429.393 247.056 428.302 247.679 428.302 249.549Z" fill="white"/>
<path d="M418.644 243.939C418.644 245.653 419.89 247.835 421.448 248.614C423.006 249.549 424.252 248.77 424.252 247.056C424.252 245.341 423.006 243.16 421.448 242.38C419.89 241.445 418.644 242.225 418.644 243.939Z" fill="white"/>
<path d="M408.985 238.329C408.985 240.043 410.232 242.225 411.789 243.004C413.347 243.939 414.594 243.16 414.594 241.446C414.594 239.732 413.347 237.55 411.789 236.771C410.232 235.991 408.985 236.615 408.985 238.329Z" fill="white"/>
<path d="M419.578 275.416L440.296 287.259V268.559L419.578 256.561V275.416Z" fill="white" fill-opacity="0.4"/>
<path d="M393.875 260.456L414.438 272.455V253.6L393.875 241.757V260.456Z" fill="white" fill-opacity="0.9"/>
<path opacity="0.7" d="M368.015 245.497L388.734 257.495V238.64L368.015 226.797V245.497Z" fill="white"/>
<path d="M360.85 241.445L309.91 211.994V208.098L360.85 237.55V241.445Z" fill="url(#paint19_linear_906_16379)"/>
<path d="M360.85 234.121L309.91 204.514V200.619L360.85 230.07V234.121Z" fill="url(#paint20_linear_906_16379)"/>
<path d="M360.85 226.642L309.91 197.19V193.139L360.85 222.746V226.642Z" fill="url(#paint21_linear_906_16379)"/>
<path d="M314.428 254.846L435.779 324.968C438.271 326.371 440.296 324.813 440.296 321.54V298.945C440.296 295.673 438.271 291.777 435.779 290.375L314.428 220.253C311.935 218.85 309.91 220.408 309.91 223.681V246.276C309.91 249.704 311.935 253.444 314.428 254.846Z" fill="white"/>
<path d="M387.021 291.777L402.755 300.971V281.336L387.021 272.143V291.777Z" fill="#99CFFF"/>
<path d="M367.081 280.401L382.971 289.439V273.078L367.081 263.884V280.401Z" fill="#98EF7A"/>
<path d="M347.298 268.87L363.187 278.064V254.067L347.298 244.873V268.87Z" fill="#F97F58"/>
<path d="M318.791 250.017L314.428 247.679V243.627L318.791 246.12V250.017Z" fill="#F97F58"/>
<path d="M318.791 242.692L314.428 240.198V236.302L318.791 238.64V242.692Z" fill="#F97F58"/>
<path d="M318.791 235.212L314.428 232.719V228.823L318.791 231.316V235.212Z" fill="#F97F58"/>
<path d="M342.78 264.04L320.816 251.262V247.367L342.78 259.989V264.04Z" fill="url(#paint22_linear_906_16379)"/>
<path d="M342.78 256.561L320.816 243.783V239.887L342.78 252.665V256.561Z" fill="url(#paint23_linear_906_16379)"/>
<path d="M342.78 249.081L320.816 236.459V232.407L342.78 245.185V249.081Z" fill="url(#paint24_linear_906_16379)"/>
<path d="M431.261 296.296L435.468 298.79V302.686L431.261 300.192V296.296Z" fill="#99CFFF"/>
<path d="M431.261 303.776L435.468 306.114V310.165L431.261 307.672V303.776Z" fill="#99CFFF"/>
<path d="M431.261 311.1L435.468 313.594V317.49L431.261 314.996V311.1Z" fill="#99CFFF"/>
<path d="M407.116 282.428L429.237 295.05V299.101L407.116 286.323V282.428Z" fill="url(#paint25_linear_906_16379)"/>
<path d="M407.116 289.752L429.237 302.53V306.425L407.116 293.648V289.752Z" fill="url(#paint26_linear_906_16379)"/>
<path d="M407.116 297.231L429.237 309.853V313.905L407.116 301.127V297.231Z" fill="url(#paint27_linear_906_16379)"/>
<path d="M318.634 276.506L429.704 340.707C432.04 342.11 433.91 340.551 433.91 337.591C433.91 334.474 432.04 330.89 429.704 329.643L318.634 265.443C316.297 264.04 314.428 265.598 314.428 268.559C314.428 271.52 316.297 275.26 318.634 276.506Z" fill="white"/>
<path d="M434.222 359.095L539.528 419.867C542.8 421.737 545.448 419.711 545.448 415.348V315.775C545.448 311.411 542.8 306.269 539.528 304.399L434.222 243.627C430.951 241.757 428.303 243.782 428.303 248.146V347.719C428.303 352.238 430.951 357.225 434.222 359.095Z" fill="url(#paint28_linear_906_16379)"/>
<path d="M437.492 348.966L536.411 405.998V398.674L437.492 341.486V348.966Z" fill="url(#paint29_linear_906_16379)"/>
<path d="M456.341 303.931C456.341 323.41 470.049 347.096 486.873 356.913C503.697 366.73 517.406 358.783 517.406 339.304C517.406 319.826 503.697 296.14 486.873 286.323C470.049 276.506 456.341 284.453 456.341 303.931Z" fill="url(#paint30_linear_906_16379)"/>
<path d="M218.002 206.384L323.308 267.157C326.58 269.027 329.228 267.001 329.228 262.638V184.88C329.228 180.517 326.58 175.375 323.308 173.505L218.002 112.732C214.731 110.862 212.083 112.888 212.083 117.251V195.009C212.083 199.528 214.731 204.514 218.002 206.384Z" fill="url(#paint31_linear_906_16379)"/>
<path d="M221.272 193.295L320.035 250.483V243.004L221.272 185.971V193.295Z" fill="url(#paint32_linear_906_16379)"/>
<path d="M221.272 178.18L320.035 235.213V227.733L221.272 170.7V178.18Z" fill="url(#paint33_linear_906_16379)"/>
<path d="M291.527 200.931L318.01 216.358V185.66L291.527 170.389V200.931Z" fill="url(#paint34_linear_906_16379)"/>
<path d="M257.413 181.296L283.895 196.567V165.869L257.413 150.598V181.296Z" fill="url(#paint35_linear_906_16379)"/>
<path d="M223.141 161.507L249.779 176.933V146.235L223.141 130.809V161.507Z" fill="url(#paint36_linear_906_16379)"/>
<path d="M514.368 546.631L570.915 579.355C574.966 581.692 582.287 581.381 587.116 578.731L641.327 547.41C646.156 544.605 646.624 540.398 642.418 538.061L585.87 505.337C581.82 502.999 574.498 503.311 569.669 505.96L515.458 537.281C510.785 540.086 510.162 544.294 514.368 546.631Z" fill="#E8F2FE"/>
<path d="M511.719 646.361V543.359C512.031 544.606 512.809 545.696 514.367 546.631L570.915 579.355C572.94 580.446 575.588 581.069 578.392 580.913V685.317C575.588 685.317 572.94 684.85 570.915 683.759L514.367 651.035C512.186 649.789 511.252 648.075 511.719 646.361Z" fill="url(#paint37_linear_906_16379)"/>
<path d="M586.96 578.732L641.171 547.411C643.508 546.164 644.754 544.45 645.066 542.892V645.893C645.533 647.919 644.131 650.257 641.171 651.971L586.96 683.292C584.468 684.694 581.352 685.304 578.237 685.304V581.069C581.352 580.913 584.624 580.134 586.96 578.732Z" fill="url(#paint38_linear_906_16379)"/>
<path d="M165.506 487.029C165.973 487.185 166.129 487.809 166.285 488.588C166.285 488.899 163.792 487.185 163.948 487.964C163.948 488.276 165.817 500.119 161.923 504.015C161.456 504.482 160.988 504.326 160.521 504.17L159.43 503.547C158.184 502.924 157.405 500.275 156.315 496.067C155.069 491.548 154.446 488.744 159.43 485.783C160.832 485.004 161.611 484.692 162.079 485.004L165.506 487.029Z" fill="#010400"/>
<path d="M156.315 496.223C157.717 501.677 158.652 504.794 160.833 503.547C162.858 502.3 163.325 497.781 162.702 492.483C162.079 487.808 164.415 482.978 159.431 485.939C154.446 488.899 155.069 491.704 156.315 496.223Z" fill="#484968"/>
<path d="M124.224 461.318L134.505 465.058L138.711 469.733C138.711 469.733 146.033 472.849 151.796 478.926C151.796 478.926 153.977 482.199 161.299 485.783C161.299 485.783 161.299 490.925 156.781 491.704L127.651 474.875C125.626 473.628 124.224 471.602 124.068 469.265C123.756 467.551 123.756 464.902 124.224 461.318Z" fill="#E28C66"/>
<path d="M145.722 512.74C145.722 513.208 145.411 513.675 144.632 514.143C144.476 514.299 144.632 511.338 144.009 511.805C143.853 511.961 134.35 519.285 129.054 518.039C128.431 517.883 128.275 517.415 128.275 516.948V515.701C128.275 514.299 130.144 512.273 133.26 509.312C136.531 506.04 138.712 504.014 143.697 506.975C145.099 507.754 145.722 508.377 145.722 509V512.74Z" fill="#2D0D60"/>
<path d="M133.101 509.312C129.051 513.208 126.87 515.545 128.895 516.792C130.92 518.039 135.126 516.169 139.332 512.896C143.071 510.092 148.523 509.78 143.538 506.819C138.709 504.014 136.528 506.04 133.101 509.312Z" fill="#484968"/>
<path d="M137.153 507.442L137.465 471.135L147.279 474.407L147.435 481.108C147.435 481.108 148.369 489.055 145.877 497.002C145.877 497.002 144.163 500.43 144.475 508.689C144.631 508.533 140.113 511.027 137.153 507.442Z" fill="#F1AC85"/>
<path d="M110.36 456.487C112.385 457.422 114.721 456.487 115.5 454.461L131.078 420.023C132.013 417.998 131.078 415.66 129.053 414.881C127.028 413.946 124.691 414.881 123.912 416.907L108.334 451.345C107.4 453.214 108.334 455.708 110.36 456.487Z" fill="#E28C66"/>
<path d="M108.802 452.591L133.259 438.567V418.776L108.802 432.957V452.591Z" fill="url(#paint39_linear_906_16379)"/>
<path d="M114.876 447.293V432.333L114.253 432.645V447.604L114.876 447.293Z" fill="#A29AFB"/>
<path d="M115.966 442.151V431.71L115.499 432.022V442.462L115.966 442.151Z" fill="#A29AFB"/>
<path d="M117.213 444.8V430.931L116.59 431.243V445.111L117.213 444.8Z" fill="#A29AFB"/>
<path d="M118.303 445.267V430.308L117.836 430.619V445.579L118.303 445.267Z" fill="#A29AFB"/>
<path d="M119.549 435.139V429.528L119.082 429.84V435.45L119.549 435.139Z" fill="#A29AFB"/>
<path d="M153.821 462.564V475.966C153.821 475.966 138.088 481.264 123.289 462.564V449.631L153.821 462.564Z" fill="#FF9100"/>
<path d="M146.655 466.772C146.499 466.928 146.343 466.928 146.188 466.928C143.539 467.083 134.037 465.058 124.534 454.306C123.756 453.371 123.288 452.28 123.288 451.189V420.803C123.288 418.465 124.067 416.907 125.469 416.128L132.635 411.921C133.881 411.141 135.75 411.297 137.776 412.388L147.434 417.998C151.328 420.335 154.6 425.789 154.6 430.308V460.85C154.6 461.629 154.288 462.097 153.977 462.253L146.655 466.772Z" fill="#FFFFEB"/>
<path d="M143.852 420.179C143.852 420.958 143.385 421.737 142.45 422.205C140.425 423.296 137.309 423.296 135.284 422.205C134.35 421.582 133.727 420.802 133.882 420.179V413.479C133.882 412.699 134.35 411.92 135.284 411.453C137.309 410.362 140.425 410.362 142.45 411.453C143.385 412.076 144.008 412.855 143.852 413.479V420.179Z" fill="#DD936F"/>
<path d="M170.802 463.499C172.671 462.564 173.45 460.071 172.515 458.201L155.38 424.231C154.445 422.361 151.952 421.582 150.083 422.517C148.214 423.452 147.435 425.945 148.37 427.815L165.505 461.785C166.44 463.811 168.776 464.59 170.802 463.499Z" fill="#F9AB83"/>
<path d="M126.093 399.298L121.108 418.62C120.641 420.49 122.51 422.049 124.224 421.269L135.596 416.439C136.53 415.971 137.153 415.036 136.998 413.946L133.259 394.935C132.792 392.909 130.143 392.441 129.053 394.155L126.405 398.674C126.249 398.83 126.093 398.986 126.093 399.298Z" fill="#943BBB"/>
<path d="M143.539 410.83C143.539 412.544 144.63 413.168 146.187 412.389C147.59 411.609 148.836 409.583 148.836 407.869C148.836 406.155 147.745 405.531 146.187 406.311C144.63 407.09 143.539 409.116 143.539 410.83Z" fill="#F9AB83"/>
<path d="M138.867 416.751C131.21 416.751 125.003 410.542 125.003 402.882C125.003 395.223 131.21 389.014 138.867 389.014C146.524 389.014 152.731 395.223 152.731 402.882C152.731 410.542 146.524 416.751 138.867 416.751Z" fill="#F9AB83"/>
<path d="M152.418 404.752C152.418 404.752 140.735 411.141 134.971 394.468C134.971 394.468 131.855 401.48 124.378 399.922C124.378 399.922 124.378 389.014 135.75 386.832C135.594 386.832 155.69 384.806 152.418 404.752Z" fill="#943BBB"/>
<path d="M145.877 405.376L140.892 424.698C140.425 426.568 142.294 428.127 144.008 427.348L155.38 422.517C156.314 422.049 156.938 421.114 156.782 420.024L153.043 401.013C152.576 398.987 149.928 398.52 148.837 400.234L146.189 404.753C146.033 404.908 146.033 405.064 145.877 405.376Z" fill="#943BBB"/>
<path d="M256.478 464.589C256.634 466.148 254.142 468.485 250.403 470.667C245.418 473.472 243.705 477.056 237.629 473.627C235.916 472.692 235.137 471.757 235.137 471.134V467.394C234.981 465.68 239.187 464.589 242.77 462.408C247.755 459.603 253.051 458.045 255.544 459.447C256.167 459.759 256.478 460.226 256.478 460.85V464.589Z" fill="black"/>
<path d="M250.403 466.771C255.387 463.966 258.036 460.85 255.543 459.447C253.051 458.045 247.754 459.603 242.769 462.408C237.785 465.213 231.553 466.304 237.629 469.732C243.704 473.16 245.573 469.576 250.403 466.771Z" fill="#2D0D60"/>
<path d="M242.769 455.084C242.925 456.642 240.433 458.98 236.694 461.161C231.709 463.966 229.996 467.55 223.92 464.122C222.207 463.187 221.428 462.252 221.428 461.629V457.889C221.272 456.175 225.478 455.084 229.061 452.902C234.046 450.098 239.342 448.539 241.835 449.942C242.458 450.253 242.769 450.721 242.769 451.344V455.084Z" fill="black"/>
<path d="M236.694 457.266C241.679 454.461 244.327 451.344 241.834 449.942C239.342 448.539 234.045 450.098 229.06 452.902C224.076 455.707 217.844 456.798 223.92 460.226C229.995 463.81 231.865 460.071 236.694 457.266Z" fill="#2D0D60"/>
<path d="M248.222 341.797C246.353 340.551 243.86 341.174 242.614 343.044L225.79 369.846C224.544 371.716 225.167 374.21 227.036 375.456C228.906 376.703 231.398 376.08 232.644 374.21L249.468 347.407C250.715 345.537 250.091 342.888 248.222 341.797Z" fill="#FCC4B7"/>
<path d="M237.162 371.093L231.709 379.663C229.84 382.624 225.946 383.403 223.142 381.689C220.182 379.819 219.403 375.923 221.116 373.118L226.569 364.548C226.569 364.392 233.423 361.899 237.162 371.093Z" fill="#293677"/>
<path d="M235.291 465.525C235.135 465.213 234.98 464.746 234.98 464.278V421.893C234.98 419.244 237.784 417.062 241.055 417.062C244.482 417.062 247.13 419.244 247.13 421.893V468.018C247.13 468.641 246.663 469.265 246.04 469.42C243.859 470.2 238.251 471.135 235.291 465.525Z" fill="#55D1FF"/>
<path d="M221.584 455.552C221.428 455.24 221.272 454.773 221.272 454.305L222.207 411.92C222.207 409.271 225.011 407.089 228.438 407.245C231.865 407.245 234.514 409.583 234.514 412.232L233.579 458.201C233.579 458.824 233.112 459.447 232.489 459.603C229.996 460.382 224.388 461.317 221.584 455.552Z" fill="#55D1FF"/>
<path d="M245.262 429.528C245.106 429.684 244.95 429.684 244.795 429.684C242.146 429.84 232.332 427.814 222.518 416.75C221.739 415.815 221.272 414.569 221.272 413.634V382.468C221.272 380.131 222.051 378.417 223.453 377.638L230.774 373.43C232.176 372.651 233.89 372.807 236.071 373.898L246.041 379.663C250.091 382.001 253.362 387.766 253.362 392.441V423.763C253.362 424.542 253.051 425.009 252.583 425.321L245.262 429.528Z" fill="#5258A6"/>
<path d="M242.458 381.533C242.458 382.312 241.99 383.092 240.9 383.715C238.875 384.806 235.603 384.806 233.578 383.715C232.488 383.092 232.021 382.312 232.021 381.533V374.677C232.021 373.898 232.488 373.119 233.578 372.495C235.603 371.405 238.875 371.405 240.9 372.495C241.99 373.119 242.458 373.898 242.458 374.677V381.533Z" fill="#F1AC85"/>
<path d="M237.318 378.105C229.489 378.105 223.142 371.756 223.142 363.925C223.142 356.093 229.489 349.745 237.318 349.745C245.147 349.745 251.494 356.093 251.494 363.925C251.494 371.756 245.147 378.105 237.318 378.105Z" fill="#FCC4B7"/>
<path d="M261.93 426.88C264.111 426.101 265.201 423.919 264.422 421.738L253.674 392.754C252.895 390.572 250.714 389.482 248.533 390.261C246.352 391.04 245.262 393.221 246.041 395.403L256.789 424.387C257.568 426.569 259.749 427.659 261.93 426.88Z" fill="#FCC4B7"/>
<path d="M245.572 400.856L242.301 391.195C241.21 387.923 242.924 384.339 246.195 383.248C249.466 382.157 253.049 383.871 254.14 387.144L257.411 396.805C257.411 396.805 255.074 403.661 245.572 400.856Z" fill="#293677"/>
<path fill-rule="evenodd" clip-rule="evenodd" d="M229.216 376.859C233.733 379.508 237.16 377.483 238.407 375.613C241.522 370.782 241.99 374.054 243.859 371.717C246.196 367.821 245.728 362.367 249 359.874C253.829 356.29 252.427 349.278 239.964 346.006C223.296 341.798 216.598 362.835 227.035 374.989C227.814 376.08 228.281 376.392 229.216 376.859Z" fill="#E58800"/>
<path d="M242.303 372.496C243.549 373.743 244.795 373.275 245.263 371.717C245.73 370.002 245.107 367.821 243.861 366.574C242.614 365.327 241.368 365.795 240.901 367.353C240.433 368.911 241.056 371.249 242.303 372.496Z" fill="#FCC4B7"/>
<path d="M314.74 540.478C316.297 541.569 318.634 541.258 319.724 539.543L335.925 516.637C337.016 515.079 336.704 512.741 334.991 511.65C333.433 510.56 331.096 510.871 330.006 512.585L313.805 535.492C312.714 537.05 313.182 539.232 314.74 540.478Z" fill="#FCC4B7"/>
<path d="M325.956 514.922L331.253 507.598C332.966 505.105 336.549 504.482 339.042 506.196C341.534 507.91 342.157 511.494 340.444 513.987L335.147 521.311C334.992 521.467 328.916 523.337 325.956 514.922Z" fill="#BDCEFA"/>
<path d="M344.183 544.373C344.027 544.685 343.715 544.997 343.404 545.153L324.555 555.905C322.53 557.151 319.57 555.905 318.168 553.411C316.61 550.762 317.077 547.802 319.258 546.555L341.067 534.089C341.534 533.777 342.313 533.933 342.625 534.245C344.027 535.803 347.142 539.543 344.183 544.373Z" fill="#5258A6"/>
<path d="M356.645 550.762C356.489 551.074 356.178 551.385 355.866 551.541L337.017 562.293C334.992 563.54 332.032 562.293 330.63 559.8C329.072 557.151 329.54 554.19 331.721 552.944L353.53 540.477C353.997 540.166 354.776 540.322 355.087 540.633C356.489 542.192 359.761 545.931 356.645 550.762Z" fill="#5258A6"/>
<path d="M327.048 583.331C327.203 584.89 323.465 585.825 320.349 587.695C315.987 590.188 311.314 591.59 308.977 590.344C308.354 590.032 308.198 589.565 308.198 589.097V586.604C308.043 585.201 310.223 582.864 313.495 579.747C317.078 576.163 319.414 573.982 324.867 577.098C326.424 578.033 327.048 578.657 327.048 579.28V583.331Z" fill="#010400"/>
<path d="M313.494 579.591C309.133 583.798 306.796 586.291 308.977 587.694C311.158 588.94 315.675 587.07 320.349 583.486C324.399 580.37 330.318 580.058 324.866 576.942C319.414 573.825 317.233 576.007 313.494 579.591Z" fill="#1C1C38"/>
<path d="M317.078 576.474C316.922 576.163 316.766 575.695 316.766 575.384V550.14C316.766 547.802 319.259 545.776 322.219 545.776C325.178 545.776 327.671 547.646 327.671 550.14V578.656C327.671 579.279 327.204 579.747 326.736 579.903C324.555 580.682 319.726 581.461 317.078 576.474Z" fill="#5258A6"/>
<path d="M354.776 552.944C354.62 553.1 354.464 553.1 354.308 553.1C351.972 553.255 343.248 551.386 334.68 541.724C333.901 540.945 333.434 539.854 333.434 538.919V511.338C333.434 509.312 334.213 507.754 335.303 507.131L341.846 503.391C343.092 502.612 344.65 502.767 346.519 503.858L355.399 509.001C358.982 511.026 361.941 516.169 361.941 520.22V547.957C361.941 548.581 361.786 549.048 361.318 549.36L354.776 552.944Z" fill="#FCFDFF"/>
<path d="M340.132 588.941C340.288 590.499 336.549 591.434 333.434 593.304C329.072 595.797 324.398 597.2 322.062 595.953C321.439 595.641 321.283 595.174 321.283 594.706V592.213C321.127 590.811 323.308 588.473 326.579 585.357C330.162 581.773 332.499 579.591 337.951 582.708C339.509 583.643 340.132 584.266 340.132 584.889V588.941Z" fill="#010400"/>
<path d="M326.58 585.357C322.218 589.564 319.881 592.057 322.062 593.46C324.243 594.706 328.761 592.837 333.434 589.252C337.484 586.136 343.404 585.824 337.952 582.708C332.499 579.591 330.163 581.773 326.58 585.357Z" fill="#1C1C38"/>
<path d="M330.007 582.239C329.851 581.928 329.696 581.46 329.696 581.149V555.905C329.696 553.567 332.188 551.542 335.148 551.542C338.108 551.542 340.6 553.411 340.6 555.905V584.421C340.6 585.044 340.133 585.512 339.665 585.668C337.64 586.291 332.655 587.226 330.007 582.239Z" fill="#5258A6"/>
<path d="M353.841 510.403C353.841 511.026 353.374 511.805 352.439 512.273C350.726 513.364 347.766 513.364 345.897 512.273C344.962 511.805 344.495 511.026 344.495 510.403V504.326C344.495 503.702 344.962 502.923 345.897 502.456C347.61 501.365 350.57 501.365 352.439 502.456C353.374 502.923 353.841 503.702 353.841 504.326V510.403Z" fill="#F1AC85"/>
<path d="M349.167 507.443C342.198 507.443 336.549 501.792 336.549 494.821C336.549 487.85 342.198 482.199 349.167 482.199C356.136 482.199 361.785 487.85 361.785 494.821C361.785 501.792 356.136 507.443 349.167 507.443Z" fill="#FCC4B7"/>
<path d="M356.023 504.794C355.244 504.015 353.998 502.456 353.375 500.586C353.375 500.431 353.375 500.431 353.375 500.275V494.197C353.375 492.951 353.063 491.86 352.44 490.769C351.973 489.834 351.038 489.211 349.948 489.211C349.948 489.211 339.822 493.574 336.083 485.315C335.772 484.692 336.083 483.913 336.862 483.757C337.641 483.601 338.576 482.978 339.666 481.264C339.978 480.796 340.445 480.64 340.913 480.796C341.847 481.108 343.717 481.108 345.43 479.082C345.586 478.771 345.897 478.771 346.209 478.771C348.078 478.771 354.777 479.082 358.36 481.731C359.139 482.355 371.601 493.107 357.425 504.794C357.113 505.105 356.335 505.105 356.023 504.794Z" fill="#331202"/>
<path d="M353.374 501.989C353.374 503.547 354.464 504.171 355.71 503.392C356.957 502.612 358.047 500.742 358.047 499.34C358.047 497.781 356.957 497.158 355.71 497.937C354.464 498.56 353.374 500.431 353.374 501.989Z" fill="#FCC4B7"/>
<path d="M317.7 545.153L340.132 558.086L357.424 548.581L334.369 535.491L317.7 545.153Z" fill="#BBBEB5"/>
<path d="M317.7 545.153L314.117 522.558L339.041 536.894L340.132 558.086L317.7 545.153Z" fill="#EAEEF1"/>
<path d="M337.329 548.893C338.887 549.984 341.223 549.672 342.314 548.114L358.515 525.207C359.605 523.649 359.293 521.312 357.736 520.221C356.178 519.13 353.841 519.442 352.751 521L336.55 543.907C335.304 545.465 335.771 547.802 337.329 548.893Z" fill="#FCC4B7"/>
<path d="M349.324 524.583L353.841 516.792C355.399 514.143 358.826 513.208 361.474 514.766C364.123 516.324 365.057 519.752 363.499 522.401L358.982 530.193C358.826 530.037 352.906 532.53 349.324 524.583Z" fill="#BDCEFA"/>
<defs>
<linearGradient id="paint0_linear_906_16379" x1="558.556" y1="73.4943" x2="631.712" y2="229.676" gradientUnits="userSpaceOnUse">
<stop stop-color="#E4F2FF"/>
<stop offset="0.3075" stop-color="#D7E6FD" stop-opacity="0.6923"/>
<stop offset="0.9993" stop-color="#BDCEFA" stop-opacity="0"/>
</linearGradient>
<linearGradient id="paint1_linear_906_16379" x1="508.866" y1="72.2667" x2="453.287" y2="297.897" gradientUnits="userSpaceOnUse">
<stop stop-color="#E4F2FF"/>
<stop offset="0.3075" stop-color="#D7E6FD" stop-opacity="0.6923"/>
<stop offset="0.9993" stop-color="#BDCEFA" stop-opacity="0"/>
</linearGradient>
<linearGradient id="paint2_linear_906_16379" x1="376.375" y1="-38.1307" x2="378.855" y2="89.5565" gradientUnits="userSpaceOnUse">
<stop stop-color="#E4F2FF"/>
<stop offset="0.3075" stop-color="#D7E6FD" stop-opacity="0.6923"/>
<stop offset="0.9993" stop-color="#BDCEFA" stop-opacity="0"/>
</linearGradient>
<linearGradient id="paint3_linear_906_16379" x1="556.947" y1="223.732" x2="579.268" y2="388.607" gradientUnits="userSpaceOnUse">
<stop stop-color="#E4F2FF"/>
<stop offset="0.3075" stop-color="#D7E6FD" stop-opacity="0.6923"/>
<stop offset="0.9993" stop-color="#BDCEFA" stop-opacity="0"/>
</linearGradient>
<linearGradient id="paint4_linear_906_16379" x1="50.3244" y1="160.839" x2="160.983" y2="380.527" gradientUnits="userSpaceOnUse">
<stop stop-color="#E4F2FF"/>
<stop offset="0.0555438" stop-color="#E1EFFF"/>
<stop offset="0.6478" stop-color="#C7D7FB"/>
<stop offset="0.9993" stop-color="#BDCEFA"/>
</linearGradient>
<linearGradient id="paint5_linear_906_16379" x1="27.0032" y1="51.8095" x2="205.706" y2="317.702" gradientUnits="userSpaceOnUse">
<stop stop-color="#E4F2FF"/>
<stop offset="0.0555438" stop-color="#E1EFFF"/>
<stop offset="0.6478" stop-color="#C7D7FB"/>
<stop offset="0.9993" stop-color="#BDCEFA"/>
</linearGradient>
<linearGradient id="paint6_linear_906_16379" x1="67.3025" y1="486.956" x2="303.188" y2="668.818" gradientUnits="userSpaceOnUse">
<stop stop-color="#E4F2FF"/>
<stop offset="0.0555438" stop-color="#E1EFFF"/>
<stop offset="0.6478" stop-color="#C7D7FB"/>
<stop offset="0.9993" stop-color="#BDCEFA"/>
</linearGradient>
<linearGradient id="paint7_linear_906_16379" x1="137.136" y1="485.44" x2="220.701" y2="561.147" gradientUnits="userSpaceOnUse">
<stop stop-color="#E4F2FF"/>
<stop offset="0.0555438" stop-color="#E1EFFF"/>
<stop offset="0.6478" stop-color="#C7D7FB"/>
<stop offset="0.9993" stop-color="#BDCEFA"/>
</linearGradient>
<linearGradient id="paint8_linear_906_16379" x1="29.8824" y1="558.616" x2="251.168" y2="714.768" gradientUnits="userSpaceOnUse">
<stop stop-color="#E4F2FF"/>
<stop offset="0.0555438" stop-color="#E1EFFF"/>
<stop offset="0.6478" stop-color="#C7D7FB"/>
<stop offset="0.9993" stop-color="#BDCEFA"/>
</linearGradient>
<linearGradient id="paint9_linear_906_16379" x1="65.2121" y1="549.984" x2="169.343" y2="615.811" gradientUnits="userSpaceOnUse">
<stop stop-color="#E4F2FF"/>
<stop offset="0.0555438" stop-color="#E1EFFF"/>
<stop offset="0.6478" stop-color="#C7D7FB"/>
<stop offset="0.9993" stop-color="#BDCEFA"/>
</linearGradient>
<linearGradient id="paint10_linear_906_16379" x1="6.8205" y1="336.417" x2="401.287" y2="640.046" gradientUnits="userSpaceOnUse">
<stop stop-color="#E4F2FF"/>
<stop offset="0.0555438" stop-color="#E1EFFF"/>
<stop offset="0.6478" stop-color="#C7D7FB"/>
<stop offset="0.9993" stop-color="#BDCEFA"/>
</linearGradient>
<linearGradient id="paint11_linear_906_16379" x1="233.649" y1="556.623" x2="389.947" y2="534.544" gradientUnits="userSpaceOnUse">
<stop stop-color="#E4F2FF"/>
<stop offset="0.0555438" stop-color="#E1EFFF"/>
<stop offset="0.6478" stop-color="#C7D7FB"/>
<stop offset="0.9993" stop-color="#BDCEFA"/>
</linearGradient>
<linearGradient id="paint12_linear_906_16379" x1="336.326" y1="496.146" x2="528.772" y2="686.194" gradientUnits="userSpaceOnUse">
<stop stop-color="#E4F2FF"/>
<stop offset="0.0555438" stop-color="#E1EFFF"/>
<stop offset="0.6478" stop-color="#C7D7FB"/>
<stop offset="0.9993" stop-color="#BDCEFA"/>
</linearGradient>
<linearGradient id="paint13_linear_906_16379" x1="239.346" y1="566.635" x2="529.107" y2="482.537" gradientUnits="userSpaceOnUse">
<stop stop-color="#E4F2FF"/>
<stop offset="0.0555438" stop-color="#E1EFFF"/>
<stop offset="0.6478" stop-color="#C7D7FB"/>
<stop offset="0.9993" stop-color="#BDCEFA"/>
</linearGradient>
<linearGradient id="paint14_linear_906_16379" x1="25.6821" y1="372.926" x2="143.295" y2="376.819" gradientUnits="userSpaceOnUse">
<stop stop-color="#E4F2FF"/>
<stop offset="0.0555438" stop-color="#E1EFFF"/>
<stop offset="0.6478" stop-color="#C7D7FB"/>
<stop offset="0.9993" stop-color="#BDCEFA"/>
</linearGradient>
<linearGradient id="paint15_linear_906_16379" x1="153.994" y1="321.315" x2="245.138" y2="269.527" gradientUnits="userSpaceOnUse">
<stop stop-color="#E4F2FF"/>
<stop offset="0.0555438" stop-color="#E1EFFF"/>
<stop offset="0.6478" stop-color="#C7D7FB"/>
<stop offset="0.9993" stop-color="#BDCEFA"/>
</linearGradient>
<linearGradient id="paint16_linear_906_16379" x1="461.403" y1="261.859" x2="286.699" y2="261.859" gradientUnits="userSpaceOnUse">
<stop stop-color="#A4B7FA"/>
<stop offset="1" stop-color="#ADDDFF"/>
</linearGradient>
<linearGradient id="paint17_linear_906_16379" x1="306.473" y1="117.6" x2="489.581" y2="335.702" gradientUnits="userSpaceOnUse">
<stop stop-color="#E4F2FF"/>
<stop offset="0.0555438" stop-color="#E1EFFF"/>
<stop offset="0.6478" stop-color="#C7D7FB"/>
<stop offset="0.9993" stop-color="#BDCEFA"/>
</linearGradient>
<linearGradient id="paint18_linear_906_16379" x1="109.377" y1="400.4" x2="391.269" y2="437.368" gradientUnits="userSpaceOnUse">
<stop stop-color="#E4F2FF"/>
<stop offset="0.0555438" stop-color="#E1EFFF"/>
<stop offset="0.6478" stop-color="#C7D7FB"/>
<stop offset="0.9993" stop-color="#BDCEFA"/>
</linearGradient>
<linearGradient id="paint19_linear_906_16379" x1="360.913" y1="224.803" x2="309.875" y2="224.803" gradientUnits="userSpaceOnUse">
<stop stop-color="#FCFDFF" stop-opacity="0"/>
<stop offset="0.796875" stop-color="white"/>
</linearGradient>
<linearGradient id="paint20_linear_906_16379" x1="360.913" y1="217.401" x2="309.875" y2="217.401" gradientUnits="userSpaceOnUse">
<stop stop-color="#FCFDFF" stop-opacity="0"/>
<stop offset="0.796875" stop-color="white"/>
</linearGradient>
<linearGradient id="paint21_linear_906_16379" x1="360.913" y1="209.921" x2="309.875" y2="209.921" gradientUnits="userSpaceOnUse">
<stop stop-color="#FCFDFF" stop-opacity="0"/>
<stop offset="0.796875" stop-color="white"/>
</linearGradient>
<linearGradient id="paint22_linear_906_16379" x1="344.873" y1="263.686" x2="306.027" y2="239.819" gradientUnits="userSpaceOnUse">
<stop stop-color="#FCFDFF" stop-opacity="0"/>
<stop offset="0.760417" stop-color="#F97F58"/>
</linearGradient>
<linearGradient id="paint23_linear_906_16379" x1="344.873" y1="256.206" x2="306.027" y2="232.339" gradientUnits="userSpaceOnUse">
<stop stop-color="#FCFDFF" stop-opacity="0"/>
<stop offset="0.760417" stop-color="#F97F58"/>
</linearGradient>
<linearGradient id="paint24_linear_906_16379" x1="344.873" y1="248.726" x2="306.027" y2="224.859" gradientUnits="userSpaceOnUse">
<stop stop-color="#FCFDFF" stop-opacity="0"/>
<stop offset="0.760417" stop-color="#F97F58"/>
</linearGradient>
<linearGradient id="paint25_linear_906_16379" x1="402.137" y1="279.823" x2="446.077" y2="309.603" gradientUnits="userSpaceOnUse">
<stop stop-color="#FCFDFF" stop-opacity="0"/>
<stop offset="0.807292" stop-color="#99CFFF"/>
</linearGradient>
<linearGradient id="paint26_linear_906_16379" x1="402.137" y1="287.147" x2="446.077" y2="316.927" gradientUnits="userSpaceOnUse">
<stop stop-color="#FCFDFF" stop-opacity="0"/>
<stop offset="0.807292" stop-color="#99CFFF"/>
</linearGradient>
<linearGradient id="paint27_linear_906_16379" x1="402.137" y1="294.626" x2="446.077" y2="324.407" gradientUnits="userSpaceOnUse">
<stop stop-color="#FCFDFF" stop-opacity="0"/>
<stop offset="0.807292" stop-color="#99CFFF"/>
</linearGradient>
<linearGradient id="paint28_linear_906_16379" x1="423.802" y1="220.784" x2="542.388" y2="429.296" gradientUnits="userSpaceOnUse">
<stop stop-color="#E4F2FF"/>
<stop offset="0.3075" stop-color="#D7E6FD" stop-opacity="0.6923"/>
<stop offset="0.9993" stop-color="#BDCEFA" stop-opacity="0"/>
</linearGradient>
<linearGradient id="paint29_linear_906_16379" x1="414.652" y1="249.692" x2="498.591" y2="393.698" gradientUnits="userSpaceOnUse">
<stop stop-color="#E4F2FF"/>
<stop offset="0.0555438" stop-color="#E1EFFF"/>
<stop offset="0.6478" stop-color="#C7D7FB"/>
<stop offset="0.9993" stop-color="#BDCEFA"/>
</linearGradient>
<linearGradient id="paint30_linear_906_16379" x1="437.365" y1="236.453" x2="521.304" y2="380.459" gradientUnits="userSpaceOnUse">
<stop stop-color="#E4F2FF"/>
<stop offset="0.0555438" stop-color="#E1EFFF"/>
<stop offset="0.6478" stop-color="#C7D7FB"/>
<stop offset="0.9993" stop-color="#BDCEFA"/>
</linearGradient>
<linearGradient id="paint31_linear_906_16379" x1="212.083" y1="112.036" x2="343.51" y2="252.601" gradientUnits="userSpaceOnUse">
<stop stop-color="#E4F2FF"/>
<stop offset="0.3075" stop-color="#D7E6FD" stop-opacity="0.6923"/>
<stop offset="0.9993" stop-color="white" stop-opacity="0.66"/>
</linearGradient>
<linearGradient id="paint32_linear_906_16379" x1="196.466" y1="152.647" x2="324.871" y2="265.991" gradientUnits="userSpaceOnUse">
<stop stop-color="#E4F2FF"/>
<stop offset="0.0555438" stop-color="#E1EFFF"/>
<stop offset="0.6478" stop-color="#C7D7FB"/>
<stop offset="0.9993" stop-color="#BDCEFA"/>
</linearGradient>
<linearGradient id="paint33_linear_906_16379" x1="204.001" y1="144.111" x2="332.406" y2="257.455" gradientUnits="userSpaceOnUse">
<stop stop-color="#E4F2FF"/>
<stop offset="0.0555438" stop-color="#E1EFFF"/>
<stop offset="0.6478" stop-color="#C7D7FB"/>
<stop offset="0.9993" stop-color="#BDCEFA"/>
</linearGradient>
<linearGradient id="paint34_linear_906_16379" x1="223.743" y1="121.745" x2="352.149" y2="235.089" gradientUnits="userSpaceOnUse">
<stop stop-color="#E4F2FF"/>
<stop offset="0.0555438" stop-color="#E1EFFF"/>
<stop offset="0.6478" stop-color="#C7D7FB"/>
<stop offset="0.9993" stop-color="#BDCEFA"/>
</linearGradient>
<linearGradient id="paint35_linear_906_16379" x1="218.565" y1="127.612" x2="346.971" y2="240.955" gradientUnits="userSpaceOnUse">
<stop stop-color="#E4F2FF"/>
<stop offset="0.0555438" stop-color="#E1EFFF"/>
<stop offset="0.6478" stop-color="#C7D7FB"/>
<stop offset="0.9993" stop-color="#BDCEFA"/>
</linearGradient>
<linearGradient id="paint36_linear_906_16379" x1="213.386" y1="133.479" x2="341.791" y2="246.823" gradientUnits="userSpaceOnUse">
<stop stop-color="#E4F2FF"/>
<stop offset="0.0555438" stop-color="#E1EFFF"/>
<stop offset="0.6478" stop-color="#C7D7FB"/>
<stop offset="0.9993" stop-color="#BDCEFA"/>
</linearGradient>
<linearGradient id="paint37_linear_906_16379" x1="508.443" y1="540.747" x2="638.434" y2="802.695" gradientUnits="userSpaceOnUse">
<stop stop-color="#E4F2FF"/>
<stop offset="0.0555438" stop-color="#E1EFFF"/>
<stop offset="0.6478" stop-color="#C7D7FB"/>
<stop offset="0.9993" stop-color="#BDCEFA"/>
</linearGradient>
<linearGradient id="paint38_linear_906_16379" x1="524.243" y1="490.042" x2="641.995" y2="656.806" gradientUnits="userSpaceOnUse">
<stop stop-color="#E4F2FF"/>
<stop offset="0.0555438" stop-color="#E1EFFF"/>
<stop offset="0.6478" stop-color="#C7D7FB"/>
<stop offset="0.9993" stop-color="#BDCEFA"/>
</linearGradient>
<linearGradient id="paint39_linear_906_16379" x1="105.684" y1="441.688" x2="135.708" y2="429.975" gradientUnits="userSpaceOnUse">
<stop stop-color="#E8E9FF"/>
<stop offset="0.9996" stop-color="#C0C0F6"/>
</linearGradient>
</defs>
</svg>
