<svg width="24" height="24" viewBox="0 0 24 24" fill="none" xmlns="http://www.w3.org/2000/svg">
<path d="M24 22.6773C24 23.4088 23.4069 24.002 22.6755 24.002H16.5595V14.7079H19.6791L20.1462 11.0858H16.5595V8.77337C16.5595 7.72469 16.8507 7.01005 18.3545 7.01005L20.2725 7.00922V3.76959C19.9408 3.72545 18.8022 3.62683 17.4776 3.62683C14.7123 3.62683 12.819 5.31481 12.819 8.41465V11.0858H9.69141V14.7079H12.819V24.002H1.32462C0.592836 24.002 0 23.4088 0 22.6773V1.32656C0 0.594878 0.59293 0.00195312 1.32462 0.00195312H22.6755C23.407 0.00195312 24 0.594878 24 1.32656V22.6773Z" fill="#637899"/>
</svg>
