<svg width="1176" height="80" viewBox="0 0 1176 80" fill="none" xmlns="http://www.w3.org/2000/svg">
<path d="M446.252 20.2196C446.202 20.1701 446.153 20.1205 446.103 20.071C444.172 18.3875 442.043 17.001 439.666 16.0107C437.785 15.2184 435.804 14.6242 433.774 14.3271C432.783 14.1786 431.793 14.0795 430.803 14.03C430.704 14.03 430.654 14.03 430.555 13.9805H429.317C429.218 13.9805 429.119 14.03 429.02 14.03C427.98 14.0795 426.99 14.1786 425.95 14.3271C423.623 14.7233 421.395 15.4165 419.315 16.4563C413.225 19.4273 408.669 24.676 406.639 31.1132C406.193 32.4996 405.896 33.9356 405.748 35.3716C405.698 35.8667 405.649 36.3619 405.599 36.8571C405.599 37.0551 405.55 37.2532 405.5 37.4512V39.1843C405.55 39.3824 405.55 39.5309 405.599 39.729C406.193 49.8798 413.126 58.5452 422.732 61.5162C424.118 61.9618 425.554 62.2589 427.04 62.4075C427.535 62.457 428.079 62.5065 428.624 62.556C428.674 62.556 428.773 62.6055 428.822 62.6055H431.1C431.149 62.6055 431.248 62.556 431.298 62.556C432.635 62.5065 433.922 62.3084 435.21 62.0113C439.32 61.1201 442.934 59.2384 446.103 56.4655C446.153 56.416 446.202 56.3665 446.202 56.3665C445.014 55.1781 443.826 54.0392 442.637 52.8508C438.577 56.2675 433.873 57.9015 428.575 57.5549C423.227 57.1587 418.77 54.9305 415.255 50.9197C408.867 43.5913 408.966 32.6482 415.552 25.4188C418.869 21.7546 423.029 19.6254 427.98 19.1302C433.526 18.5855 438.428 20.2196 442.687 23.7847C443.925 22.5468 445.064 21.408 446.252 20.2196ZM458.037 38.293C458.037 42.3534 454.719 45.6214 450.659 45.6214C446.599 45.6214 443.281 42.3038 443.281 38.2435C443.281 34.1832 446.599 30.9151 450.659 30.9151C454.719 30.9646 458.037 34.2327 458.037 38.293ZM463.038 38.293C463.038 31.3112 457.344 25.9139 450.609 25.9139C443.875 25.9139 438.181 31.3607 438.181 38.2435C438.181 45.0272 443.727 50.6226 450.609 50.6226C457.443 50.6226 463.038 45.1758 463.038 38.293ZM486.707 58.7928C490.024 55.6237 491.51 51.712 491.114 47.1564C490.965 45.6214 490.569 44.136 489.925 42.7C488.39 39.4319 485.964 37.0551 482.646 35.6192C480.715 34.7774 478.735 33.9851 476.754 33.1433C475.467 32.5987 474.179 31.9549 472.991 31.1132C472.149 30.519 471.456 29.7762 471.01 28.8354C470.366 27.4985 470.218 26.112 470.465 24.676C470.763 22.943 471.604 21.4575 472.941 20.3681C475.07 18.635 477.447 18.3379 479.973 19.4768C482.3 20.7147 483.587 22.5964 483.934 25.1712C483.983 25.4188 483.983 25.6664 483.983 25.8644C484.231 25.9139 488.836 25.9139 488.985 25.8644V25.8149C488.985 25.7654 488.985 25.7159 488.985 25.6168C488.985 24.676 488.836 23.7847 488.588 22.8439C487.35 18.0904 483.241 14.5252 478.339 14.03C478.14 14.03 477.942 13.9805 477.744 13.931H476.556C476.457 13.931 476.407 13.9805 476.308 13.9805C475.912 14.03 475.467 14.0795 475.07 14.1291C472.842 14.5252 470.862 15.466 469.178 17.001C466.752 19.2292 465.464 22.0021 465.266 25.2702C465.217 26.3101 465.316 27.3499 465.514 28.3898C466.009 30.717 467.148 32.6977 468.93 34.2822C470.069 35.2725 471.307 36.0648 472.644 36.7085C473.783 37.3027 474.971 37.7483 476.16 38.2435C477.695 38.8872 479.279 39.5309 480.814 40.2242C484.578 41.9572 486.707 46.0176 485.915 50.0779C485.469 52.5537 484.181 54.5839 482.102 56.0199C479.824 57.6539 477.249 58.0996 474.526 57.3073C471.357 56.416 468.831 53.6431 468.089 50.3255C468.039 50.1769 468.039 50.0284 467.99 49.9294H462.939C462.939 50.0284 462.939 50.0779 462.939 50.1274C462.988 50.5236 463.038 50.9197 463.137 51.3158C463.979 55.0295 465.959 57.951 469.128 60.0802C471.06 61.3676 473.139 62.1104 475.467 62.358C475.714 62.358 475.912 62.4075 476.16 62.457H477.843C477.893 62.457 477.992 62.4075 478.041 62.4075C478.636 62.3084 479.23 62.3084 479.774 62.1599C482.498 61.7638 484.825 60.5754 486.707 58.7928ZM511.861 25.6664C511.861 24.5275 511.861 23.3886 511.861 22.2497C511.861 21.7546 511.812 21.2594 511.713 20.7643C511.366 18.9817 510.524 17.4466 509.187 16.1592C507.9 14.9708 506.365 14.2281 504.582 13.9805C504.384 13.9805 504.236 13.931 504.037 13.8815H502.849C502.602 13.931 502.403 13.931 502.156 13.9805C499.977 14.3271 498.195 15.367 496.858 17.1C495.669 18.5855 495.075 20.3186 495.075 22.2497C495.075 22.9925 495.075 23.7352 495.075 24.4285C495.075 25.3198 495.125 26.211 495.224 27.1023C495.422 28.4888 495.719 29.8257 496.263 31.0636C496.907 32.6482 497.897 34.0841 499.036 35.3716C499.878 36.3619 500.819 37.2532 501.71 38.1445C502.502 38.9367 503.344 39.729 504.037 40.5708C505.226 42.0068 506.018 43.5913 506.414 45.4234C506.612 46.4632 506.711 47.5031 506.711 48.5429C506.711 50.0779 506.711 51.6129 506.711 53.1974C506.711 53.5936 506.711 53.9897 506.612 54.3858C506.513 55.1286 506.266 55.8218 505.82 56.416C504.731 57.9015 502.651 58.0996 501.314 56.8617C500.918 56.515 500.621 56.0694 500.423 55.5742C500.126 54.881 500.027 54.1383 500.027 53.3955C500.027 50.7711 500.027 48.0973 500.027 45.4729C500.027 45.3739 500.027 45.2748 500.027 45.1758C499.631 45.1263 495.174 45.1263 494.976 45.1758V45.4234C494.976 48.2953 494.976 51.1673 494.976 54.0392C494.976 54.6829 495.026 55.3266 495.174 55.9703C495.917 59.1889 498.541 61.7143 501.809 62.3084C502.057 62.358 502.354 62.4075 502.602 62.457H504.137C504.186 62.457 504.236 62.4075 504.285 62.4075C504.78 62.358 505.325 62.2589 505.82 62.1104C508.791 61.2191 510.673 59.3375 511.415 56.317C511.613 55.5742 511.663 54.782 511.663 53.9897C511.663 52.3557 511.663 50.6721 511.663 49.0381C511.663 47.9982 511.613 47.0079 511.514 45.9681C511.366 44.6806 511.069 43.4427 510.673 42.2543C509.93 40.1747 508.742 38.3921 507.256 36.758C506.167 35.5696 504.978 34.4308 503.79 33.3414C503.097 32.6977 502.403 32.054 501.809 31.3607C500.373 29.7267 499.631 27.7956 499.581 25.6168C499.531 24.676 499.581 23.6857 499.581 22.7449C499.581 22.1012 499.68 21.507 499.928 20.9128C500.324 19.873 501.017 19.1302 502.106 18.7836C502.899 18.536 503.691 18.536 504.434 18.7836C505.226 18.9817 505.771 19.4768 506.167 20.17C506.266 20.3681 506.365 20.6157 506.414 20.8138C506.612 21.3584 506.662 21.9526 506.662 22.5468C506.662 23.5372 506.662 24.577 506.662 25.5673C506.662 25.6664 506.662 25.7159 506.662 25.8149H511.663C511.861 25.8149 511.861 25.7654 511.861 25.6664ZM550.088 45.2253H527.657C531.42 38.4416 535.134 31.6578 538.897 24.8741C542.611 31.7074 546.324 38.4416 550.088 45.2253ZM564.992 62.457C564.943 62.358 564.893 62.2589 564.844 62.1599C562.467 57.7529 560.09 53.346 557.713 48.939C555.089 44.0864 552.464 39.1843 549.84 34.3317C547.711 30.4199 545.631 26.5081 543.502 22.5963C542.017 19.8729 540.581 17.1496 539.095 14.4262C538.996 14.2776 538.947 14.1291 538.847 13.9805H538.798C538.748 14.03 538.748 14.1291 538.699 14.1786C538.055 15.367 537.411 16.5554 536.768 17.7438C532.361 25.9635 527.904 34.1336 523.497 42.3534C519.883 49.0381 516.318 55.6733 512.703 62.358C512.653 62.4075 512.653 62.5065 512.604 62.556H518.447C518.496 62.5065 518.496 62.4075 518.546 62.358C520.675 58.2976 522.854 54.2373 524.983 50.1769C525.082 50.0284 525.131 49.9789 525.28 49.9789C534.292 49.9789 543.353 49.9789 552.365 49.9789H552.563C552.613 50.0779 552.663 50.1274 552.663 50.1769C554.792 54.1878 556.921 58.1986 559.05 62.2589C559.1 62.358 559.149 62.4075 559.199 62.5065H564.744C564.794 62.5065 564.844 62.5065 564.893 62.5065C565.042 62.556 564.992 62.5065 564.992 62.457Z" fill="#A3B3CC"/>
<g clip-path="url(#clip0_1751_15054)">
<path d="M718.648 59.6781H715.598L707.512 79.3563H710.284L712.548 73.6091L712.779 73.0114H721.328L721.559 73.6091L723.823 79.3563H726.549L718.648 59.6781ZM715.921 65.0574C716.383 63.862 716.707 62.8505 716.938 62.0689L717.077 61.6551L717.446 62.8045C717.723 63.6321 717.954 64.3218 718.232 64.9655L720.588 70.9425H713.565L715.921 65.0574Z" fill="#A3B3CC"/>
<path d="M767.858 62.2068C766.056 60.5517 763.468 59.6781 760.095 59.6781H753.534V79.3563H760.927C762.821 79.3563 764.531 78.9425 765.963 78.1609C767.442 77.3333 768.551 76.1839 769.336 74.6666C770.122 73.1494 770.538 71.3563 770.538 69.3333C770.584 66.2528 769.66 63.862 767.858 62.2068ZM767.026 73.5172C766.425 74.7126 765.594 75.6321 764.485 76.2298C763.376 76.8735 762.128 77.1954 760.65 77.1954H756.26V61.885H760.049C762.59 61.885 764.531 62.5287 765.871 63.816C767.211 65.1034 767.904 66.9425 767.904 69.3793C767.904 70.9425 767.627 72.3218 767.026 73.5172Z" fill="#A3B3CC"/>
<path d="M706.541 59.6781C706.218 59.6781 705.848 59.6781 705.571 59.6781C704.647 59.7241 703.861 59.908 703.399 61.0574C703.261 61.4252 700.026 73.3333 699.888 73.885C699.749 74.5747 699.518 75.4482 699.287 76.5057L699.148 77.0114C698.871 75.6321 698.455 73.931 697.901 71.908L694.435 59.6781H691.848C689.537 67.816 688.197 72.4597 687.92 73.6551C687.643 74.8505 687.365 76 687.134 77.0114C686.765 75.3563 686.395 73.7471 685.979 72.1839L682.421 59.6781H679.649L685.471 79.3563H688.659C691.062 70.7586 692.31 66.0689 692.494 65.3333C692.679 64.5977 692.864 63.7241 693.095 62.6206C693.511 64.6436 693.834 66.0229 694.065 66.8045L697.485 79.3103H700.673L706.541 59.6781Z" fill="#A3B3CC"/>
<path d="M675.26 59.6781C674.335 59.6781 672.58 59.862 672.58 61.6091C672.58 61.977 672.58 71.816 672.58 71.816C672.58 73.6551 672.071 75.0804 671.101 76.0459C670.131 77.0114 668.744 77.4712 666.942 77.4712C665.233 77.4712 663.893 77.0114 662.969 76.0919C662.044 75.1724 661.582 73.7931 661.582 72V59.6781H658.902V72.2298C658.902 73.7931 659.226 75.1264 659.919 76.2298C660.566 77.3333 661.536 78.2068 662.738 78.8045C663.939 79.4022 665.371 79.6781 666.989 79.6781C668.698 79.6781 670.131 79.3563 671.378 78.7586C672.626 78.1609 673.596 77.2873 674.243 76.0919C674.89 74.8965 675.26 73.5632 675.26 71.954V59.6781Z" fill="#A3B3CC"/>
<path d="M649.984 72.3219C650.077 72.2759 650.123 72.2759 650.215 72.2299C650.908 71.9541 651.509 71.5403 652.017 71.0345C653.034 70.069 653.773 68.6437 653.773 66.4828C653.773 60.7817 648.921 59.8621 647.073 59.8621H640.05H638.71H637.37V79.5403H640.05V73.0115H647.489C647.489 73.0115 650.585 77.9771 650.723 78.161C651.786 79.8621 652.895 79.6782 654.651 79.6782L649.984 72.3219ZM640.05 70.8506V61.9771H646.057C647.489 61.9771 648.552 62.2989 649.337 62.8966C649.383 62.9426 649.476 62.9886 649.522 63.0345C649.522 63.0345 649.568 63.0345 649.568 63.0805C650.4 63.7702 651.093 64.8276 651.093 66.4828C651.093 67.5863 650.816 68.4138 650.446 69.0115C650.4 69.1035 650.354 69.1955 650.261 69.2874L650.215 69.3334C650.169 69.4253 650.077 69.4713 650.03 69.5633C649.984 69.6092 649.938 69.6552 649.892 69.7012C649.845 69.7472 649.799 69.7931 649.753 69.8391C649.707 69.8851 649.661 69.9311 649.568 69.9771C649.522 70.023 649.476 70.069 649.383 70.115C649.383 70.115 649.337 70.115 649.337 70.161C648.598 70.6667 647.628 70.8966 646.38 70.8966C646.38 70.8506 640.281 70.8506 640.05 70.8506Z" fill="#A3B3CC"/>
<path d="M743.553 72.3219C743.646 72.2759 743.692 72.2759 743.784 72.2299C744.478 71.9541 745.078 71.5403 745.587 71.0345C746.603 70.069 747.342 68.6437 747.342 66.4828C747.342 60.7817 742.491 59.8621 740.642 59.8621H733.619H732.279H730.939V79.5403H733.619V73.0115H741.058C741.058 73.0115 744.154 77.9771 744.293 78.161C745.356 79.8621 746.464 79.6782 748.22 79.6782L743.553 72.3219ZM733.619 70.8506V61.9771H739.626C741.058 61.9771 742.121 62.2989 742.907 62.8966C742.953 62.9426 743.045 62.9886 743.091 63.0345C743.091 63.0345 743.138 63.0345 743.138 63.0805C743.969 63.7702 744.662 64.8276 744.662 66.4828C744.662 67.5863 744.385 68.4138 744.016 69.0115C743.969 69.1035 743.923 69.1955 743.831 69.2874L743.784 69.3334C743.738 69.4253 743.646 69.4713 743.6 69.5633C743.553 69.6092 743.507 69.6552 743.461 69.7012C743.415 69.7472 743.369 69.7931 743.322 69.8391C743.276 69.8851 743.23 69.9311 743.138 69.9771C743.091 70.023 743.045 70.069 742.953 70.115C742.953 70.115 742.907 70.115 742.907 70.161C742.167 70.6667 741.197 70.8966 739.949 70.8966C739.996 70.8506 733.85 70.8506 733.619 70.8506Z" fill="#A3B3CC"/>
<path d="M688.244 27.6322C691.848 24.2759 696.653 22.1609 701.921 21.977V0.321838C690.6 0.505746 680.296 5.05747 672.718 12.3218L688.244 27.6322Z" fill="#DBE3F0"/>
<path d="M716.892 27.5402L732.094 11.954C724.562 4.87358 714.443 0.505764 703.353 0.275879V21.931C703.861 21.931 704.323 21.977 704.785 22.023C705.479 22.069 706.172 22.023 706.588 21.0575C706.588 21.0115 712.086 7.86209 712.086 7.86209L712.548 7.35634L707.974 22.6207C711.393 23.5402 714.443 25.2414 716.892 27.5402Z" fill="#DBE3F0"/>
<path d="M733.156 12.9655L717.862 28.5057C721.374 32.1839 723.545 37.1494 723.591 42.5747H745.632C745.494 31.0345 740.734 20.5977 733.156 12.9655Z" fill="#DBE3F0"/>
<path d="M702.66 48.4138C702.66 48.4138 700.488 48.1379 700.488 46.1609C700.488 44.1839 712.548 7.4023 712.548 7.4023L713.149 7.35632L702.66 48.4138Z" fill="#A3B3CC"/>
<path d="M671.794 13.2874C664.401 20.8736 659.78 31.2184 659.642 42.5747H681.682C681.729 37.1954 683.854 32.3218 687.273 28.6437L675.167 16.5977L671.794 13.2874Z" fill="#DBE3F0"/>
</g>
<defs>
<clipPath id="clip0_1751_15054">
<rect width="134" height="80" fill="white" transform="translate(637)"/>
</clipPath>
</defs>
</svg>
