<svg width="180" height="168" viewBox="0 0 180 168" fill="none" xmlns="http://www.w3.org/2000/svg">
<path d="M176.55 75.0467C178.797 78.0875 179.66 81.1284 179.833 83.8314V84.1693C179.66 86.8723 178.624 89.9131 176.55 92.954C170.676 101.232 130.247 165.09 130.247 165.09C130.247 165.09 126.791 171.51 118.844 164.246C117.291 162.808 116.937 162.503 116.61 162.17C116.247 161.8 115.919 161.394 114.006 159.346C110.205 155.292 107.268 147.014 117.116 133.499C127.828 118.97 138.886 102.414 145.797 91.2646C147.006 89.4063 147.524 86.8723 147.524 84.5071V83.4935C147.524 81.1284 147.006 78.5943 145.797 76.736C138.886 65.7551 127.828 49.0303 117.116 34.5017C107.095 20.9867 110.205 12.7088 114.006 8.6543C115.919 6.60618 116.247 6.20091 116.61 5.83027C116.937 5.49775 117.291 5.19311 118.844 3.75512C126.791 -3.50919 130.247 2.91043 130.247 2.91043C130.247 2.91043 170.676 66.7687 176.55 75.0467Z" fill="#53B4FA"/>
<path d="M27.8104 79.1015C27.8104 80.7909 28.3287 82.4803 29.1926 83.8318C34.0303 91.6029 41.9779 103.428 49.4072 113.734C56.491 123.194 53.2083 126.573 50.2711 129.107C48.1979 131.007 46.6106 132.338 44.8532 133.811C44.2673 134.302 43.6625 134.809 43.0146 135.358C37.1402 140.257 34.0303 134.513 34.0303 134.513C34.0303 134.513 6.55914 91.0961 2.41255 85.1833C0.857581 82.9871 0.339278 80.7909 0.166504 78.9326C0.339278 76.9053 0.857581 74.8781 2.41255 72.6819C6.55914 66.7691 33.1664 24.8727 33.1664 24.8727C33.1664 24.8727 36.6219 18.2841 43.0146 22.5075C45.4334 24.1969 47.6795 26.0552 50.2711 28.7582C50.3996 28.9006 50.5301 29.0429 50.6615 29.1861C53.1798 31.9314 55.9757 34.9794 49.4072 44.1315C41.9779 54.2677 34.0303 66.0933 29.1926 73.8645C28.3287 75.216 27.8104 77.4122 27.8104 79.1015Z" fill="#53B4FA"/>
</svg>
