<svg width="102" height="74" viewBox="0 0 102 74" fill="none" xmlns="http://www.w3.org/2000/svg">
<g clip-path="url(#clip0_874_3225)">
<path d="M57.1604 22.0247C56.9387 21.6744 56.8056 21.2365 56.8056 20.7986C56.8056 20.3607 56.9387 19.7915 57.1604 19.4412C58.402 17.427 60.4419 14.3619 62.3487 11.7347C64.1225 9.23885 63.2356 8.49447 62.5705 7.75009C61.9053 7.0495 61.3288 6.56784 60.708 6.12997C59.0672 5.0353 58.1803 6.74299 58.1803 6.74299C58.1803 6.74299 51.3512 17.6022 50.2869 19.1347C49.8878 19.7039 49.7548 20.2294 49.7104 20.7548C49.7548 21.2365 49.8878 21.8057 50.2869 22.3749C51.3512 23.9075 58.4021 35.1607 58.4021 35.1607C58.4021 35.1607 59.2003 36.6495 60.708 35.3797C61.3731 34.8104 61.8609 34.4164 62.5705 33.7596C63.3243 33.1028 64.1669 32.227 62.3487 29.7749C60.4419 27.1039 58.402 24.0389 57.1604 22.0247Z" fill="#56B8FF"/>
<path d="M101.461 22.0247C101.461 21.9809 101.461 21.9809 101.461 22.0247C101.417 21.3241 101.195 20.536 100.619 19.7478C99.1112 17.6022 88.7344 1.05075 88.7344 1.05075C88.7344 1.05075 87.8475 -0.61316 85.8077 1.26968C84.9651 2.05785 85.4973 1.5324 84.566 2.5395C83.5904 3.59039 82.7922 5.73595 85.3642 9.23891C88.1136 13.0046 90.9517 17.3395 92.7255 20.1857C93.0359 20.6673 93.1689 21.3241 93.1689 21.9371C93.1689 21.9371 93.1689 22.0247 93.1689 22.0685C93.1689 22.1123 93.1689 22.1561 93.1689 22.1999C93.1689 22.8129 93.0359 23.4697 92.7255 23.9513C90.9517 26.8413 88.1136 31.1324 85.3642 34.8981C82.8366 38.401 83.5904 40.5466 84.566 41.5975C85.4973 42.6046 84.9651 42.0791 85.8077 42.8673C87.8475 44.7502 88.7344 43.0862 88.7344 43.0862C88.7344 43.0862 99.1112 26.5348 100.619 24.3892C101.151 23.601 101.417 22.8129 101.461 22.1123C101.461 22.0685 101.461 22.0685 101.461 22.0247Z" fill="#56B8FF"/>
<path d="M44.3004 38.0509H45.1429L48.2471 51.6686H48.2914L49.7104 44.8816L51.4842 37.1313H52.6815L48.8235 53.5952H47.6262L45.8968 46.0201L44.7438 40.284L43.5908 45.9325L41.817 53.5952H40.6197L36.7617 37.1313H37.959L39.7328 44.8816L41.1519 51.6686H41.1962L44.3004 38.0509Z" fill="#252525"/>
<path d="M53.7461 49.0851V45.6697C53.7461 42.1668 55.0321 41.0283 57.7371 41.0283C60.4422 41.0283 61.7282 42.0792 61.7282 45.7135V49.0413C61.7282 52.5005 60.4422 53.7265 57.7371 53.7265C55.0321 53.7703 53.7461 52.7194 53.7461 49.0851ZM60.6639 49.0413V45.7573C60.6639 43.0863 60.2204 42.0354 57.7371 42.0354C55.3869 42.0354 54.8104 43.0863 54.8104 45.7135V48.9975C54.8104 51.6686 55.2538 52.7632 57.7371 52.7632C60.0874 52.7632 60.6639 51.6686 60.6639 49.0413Z" fill="#252525"/>
<path d="M65.6305 41.0283L65.6748 42.517C66.2069 41.5099 67.493 40.7656 69.045 41.0283V42.0354C67.1382 41.7289 65.7635 42.9549 65.7635 44.7064V53.5514H64.6992V40.9845H65.6305V41.0283Z" fill="#252525"/>
<path d="M78.2686 53.5949L73.7454 47.3772H72.5481V53.5949H71.4395V37.1748H72.5481V46.3263H73.7454L77.7808 41.0281H79.0668L74.6323 46.8955L79.5989 53.6387H78.2686V53.5949Z" fill="#252525"/>
<path d="M7.80471 60.5575C7.80471 58.5433 6.47436 57.7989 4.56753 57.7989C2.30594 57.7989 1.06428 58.4995 1.06428 61.1705C1.06428 64.148 2.83807 64.1042 5.41008 64.4108C7.84905 64.7173 9.26809 66.2936 9.26809 68.7019C9.26809 72.7303 7.31691 73.6498 4.43449 73.6498C1.50773 73.6498 0 72.38 0 69.7528H1.01993C1.01993 71.767 2.1729 72.6427 4.43449 72.6427C7.18388 72.6427 8.15946 71.548 8.15946 68.7019C8.15946 65.7681 6.07526 65.4179 3.59194 65.1989C1.86249 65.0238 0 64.2794 0 61.2143C0 58.1054 1.55207 56.8794 4.56753 56.8794C6.91781 56.8794 8.6916 57.6676 8.82464 60.6013H7.80471V60.5575Z" fill="#252525"/>
<path d="M11.5737 68.9645V65.5491C11.5737 62.0462 12.8597 60.9077 15.5648 60.9077C18.2698 60.9077 19.5558 61.9586 19.5558 65.5929V68.9207C19.5558 72.3799 18.2698 73.6059 15.5648 73.6059C12.8597 73.6497 11.5737 72.5988 11.5737 68.9645ZM18.4915 68.9207V65.6367C18.4915 62.9657 18.0481 61.9148 15.5648 61.9148C13.2145 61.9148 12.638 62.9657 12.638 65.5929V68.8769C12.638 71.5479 13.0815 72.6426 15.5648 72.6426C17.9151 72.6426 18.4915 71.5479 18.4915 68.9207Z" fill="#252525"/>
<path d="M25.5426 73.562C22.9263 73.7372 22.4385 72.8177 22.4385 70.0591V57.0981H23.5027V70.1029C23.5027 72.2922 23.7688 72.5987 25.5426 72.5987V73.562Z" fill="#252525"/>
<path d="M38.6689 58.1055L39.7331 57.9741V60.9079H42.3495V61.9149H39.7331V69.9717C39.7331 72.2924 40.4426 72.7303 42.4825 72.599V73.5185C39.6001 73.7812 38.6245 72.7303 38.6245 69.9717V58.1055H38.6689Z" fill="#252525"/>
<path d="M47.1833 57.7551C47.1833 58.7622 45.5869 58.7622 45.5869 57.7551C45.5869 56.7918 47.1833 56.748 47.1833 57.7551ZM46.9173 73.4746H45.853V60.9078H46.9173V73.4746Z" fill="#252525"/>
<path d="M49.8438 68.9645V65.5491C49.8438 62.0462 51.1298 60.9077 53.8348 60.9077C56.5398 60.9077 57.8258 61.9586 57.8258 65.5929V68.9207C57.8258 72.3799 56.5398 73.6059 53.8348 73.6059C51.1298 73.6497 49.8438 72.5988 49.8438 68.9645ZM56.7615 68.9207V65.6367C56.7615 62.9657 56.3181 61.9148 53.8348 61.9148C51.4845 61.9148 50.908 62.9657 50.908 65.5929V68.8769C50.908 71.5479 51.3515 72.6426 53.8348 72.6426C56.1851 72.6426 56.7615 71.5479 56.7615 68.9207Z" fill="#252525"/>
<path d="M71.7943 70.0153C71.7943 71.4602 72.5481 72.5111 74.7654 72.5111C76.7165 72.5111 77.6921 71.5916 77.6921 69.9715C77.6921 67.6945 75.874 67.6508 74.1002 67.4318C72.4151 67.2129 70.7743 66.8188 70.7743 64.1916C70.7743 62.1336 72.1047 60.8638 74.6767 60.8638C77.3374 60.8638 78.4903 62.1336 78.4903 64.1478H77.4261C77.3817 62.6152 76.6278 61.8271 74.6767 61.8271C72.7255 61.8271 71.8829 62.7028 71.8829 64.1478C71.8829 66.2934 73.3907 66.3371 75.0314 66.5123C76.8496 66.775 78.8007 67.1691 78.8007 69.9277C78.8007 72.117 77.5147 73.5182 74.7654 73.5182C72.3264 73.5182 70.73 72.5549 70.73 69.9715H71.7943V70.0153Z" fill="#252525"/>
<path d="M34.2786 61.1268V69.0522C34.2786 71.6795 33.7022 72.7741 31.3519 72.7741C28.8686 72.7741 28.4251 71.6795 28.4251 69.0085V61.083H27.3608V69.0522C27.3608 72.6866 28.6468 73.7374 31.3519 73.7374C34.0569 73.7374 35.3429 72.5114 35.3429 69.0522V61.083H34.2786V61.1268Z" fill="#252525"/>
<path d="M67.2713 73.5184V65.5929C67.2713 62.9657 66.6949 61.871 64.3446 61.871C61.8612 61.871 61.4178 62.9657 61.4178 65.6367V73.5622H60.3535V65.5929C60.3535 61.9586 61.6395 60.9077 64.3446 60.9077C67.0496 60.9077 68.3356 62.1337 68.3356 65.5929V73.5622H67.2713V73.5184Z" fill="#252525"/>
</g>
<defs>
<clipPath id="clip0_874_3225">
<rect width="102" height="74" fill="white"/>
</clipPath>
</defs>
</svg>
